<?xml version="1.0" encoding="UTF-8" standalone="no"?>
<!DOCTYPE svg PUBLIC "-//W3C//DTD SVG 1.1//EN"
 "http://www.w3.org/Graphics/SVG/1.1/DTD/svg11.dtd">
<!-- Generated by graphviz version 2.40.1 (20161225.0304)
 -->
<!-- Title: G Pages: 1 -->
<svg width="674pt" height="112pt"
 viewBox="0.00 0.00 674.00 112.00" xmlns="http://www.w3.org/2000/svg" xmlns:xlink="http://www.w3.org/1999/xlink">
<g id="graph0" class="graph" transform="scale(1 1) rotate(0) translate(4 108)">
<title>G</title>
<polygon fill="#ffffff" stroke="transparent" points="-4,4 -4,-108 670,-108 670,4 -4,4"/>
<g id="clust3" class="cluster">
<title>cluster_hiden</title>
<polygon fill="none" stroke="#000000" stroke-dasharray="5,2" points="101,-8 101,-96 477,-96 477,-8 101,-8"/>
<text text-anchor="middle" x="289" y="-80.8" font-family="Times,serif" font-size="14.00" fill="#000000">hidden layer</text>
</g>
<!-- i_1 -->
<g id="node1" class="node">
<title>i_1</title>
<ellipse fill="#c0c0c0" stroke="#c0c0c0" cx="19.5" cy="-47" rx="19.5" ry="19.5"/>
<text text-anchor="start" x="12.5" y="-44.3" font-family="Times,serif" font-size="14.00" fill="#000000">x</text>
<text text-anchor="start" x="19.5" y="-44.3" font-family="Times,serif" baseline-shift="sub" font-size="14.00" fill="#000000">0</text>
</g>
<!-- h_1 -->
<g id="node3" class="node">
<title>h_1</title>
<ellipse fill="#d2b48c" stroke="#d2b48c" cx="127" cy="-47" rx="18" ry="18"/>
<text text-anchor="start" x="120.5" y="-44.9" font-family="Times,serif" font-size="12.00" fill="#000000">b</text>
<text text-anchor="start" x="127.5" y="-44.9" font-family="Times,serif" baseline-shift="sub" font-size="12.00" fill="#000000">1</text>
</g>
<!-- i_1&#45;&gt;h_1 -->
<g id="edge1" class="edge">
<title>i_1&#45;&gt;h_1</title>
<path fill="none" stroke="#000000" d="M39.2172,-47C39.2172,-47 98.8401,-47 98.8401,-47"/>
<polygon fill="#000000" stroke="#000000" points="108.8401,-47 98.8401,-51.5001 103.8401,-47 98.8401,-47.0001 98.8401,-47.0001 98.8401,-47.0001 103.8401,-47 98.8401,-42.5001 108.8401,-47 108.8401,-47"/>
<text text-anchor="start" x="66" y="-51.4" font-family="Times,serif" font-size="12.00" fill="#000000">w</text>
<text text-anchor="start" x="76" y="-51.4" font-family="Times,serif" baseline-shift="sub" font-size="12.00" fill="#000000">1</text>
</g>
<!-- o_1 -->
<g id="node2" class="node">
<title>o_1</title>
<ellipse fill="#c0c0c0" stroke="#c0c0c0" cx="557" cy="-47" rx="18" ry="18"/>
<text text-anchor="start" x="550.5" y="-44.9" font-family="Times,serif" font-size="12.00" fill="#000000">b</text>
<text text-anchor="start" x="557.5" y="-44.9" font-family="Times,serif" baseline-shift="sub" font-size="12.00" fill="#000000">4</text>
</g>
<!-- C -->
<g id="node6" class="node">
<title>C</title>
<ellipse fill="none" stroke="#000000" stroke-width="0" cx="648" cy="-47" rx="18" ry="18"/>
<text text-anchor="middle" x="648" y="-43.3" font-family="Times,serif" font-size="14.00" fill="#000000">C</text>
</g>
<!-- o_1&#45;&gt;C -->
<g id="edge2" class="edge">
<title>o_1&#45;&gt;C</title>
<path fill="none" stroke="#000000" d="M575.4152,-47C575.4152,-47 619.9227,-47 619.9227,-47"/>
<polygon fill="#000000" stroke="#000000" points="629.9227,-47 619.9228,-51.5001 624.9227,-47 619.9227,-47.0001 619.9227,-47.0001 619.9227,-47.0001 624.9227,-47 619.9227,-42.5001 629.9227,-47 629.9227,-47"/>
</g>
<!-- h_2 -->
<g id="node4" class="node">
<title>h_2</title>
<ellipse fill="#d2b48c" stroke="#d2b48c" cx="289" cy="-47" rx="18" ry="18"/>
<text text-anchor="start" x="282.5" y="-44.9" font-family="Times,serif" font-size="12.00" fill="#000000">b</text>
<text text-anchor="start" x="289.5" y="-44.9" font-family="Times,serif" baseline-shift="sub" font-size="12.00" fill="#000000">2</text>
</g>
<!-- h_1&#45;&gt;h_2 -->
<g id="edge3" class="edge">
<title>h_1&#45;&gt;h_2</title>
<path fill="none" stroke="#000000" d="M145.2686,-47C145.2686,-47 260.5497,-47 260.5497,-47"/>
<polygon fill="#000000" stroke="#000000" points="270.5497,-47 260.5497,-51.5001 265.5497,-47 260.5497,-47.0001 260.5497,-47.0001 260.5497,-47.0001 265.5497,-47 260.5496,-42.5001 270.5497,-47 270.5497,-47"/>
<text text-anchor="start" x="200" y="-56.4" font-family="Times,serif" font-size="12.00" fill="#000000">w</text>
<text text-anchor="start" x="210" y="-56.4" font-family="Times,serif" baseline-shift="sub" font-size="12.00" fill="#000000">2</text>
</g>
<!-- h_3 -->
<g id="node5" class="node">
<title>h_3</title>
<ellipse fill="#d2b48c" stroke="#d2b48c" cx="451" cy="-47" rx="18" ry="18"/>
<text text-anchor="start" x="444.5" y="-44.9" font-family="Times,serif" font-size="12.00" fill="#000000">b</text>
<text text-anchor="start" x="451.5" y="-44.9" font-family="Times,serif" baseline-shift="sub" font-size="12.00" fill="#000000">3</text>
</g>
<!-- h_2&#45;&gt;h_3 -->
<g id="edge4" class="edge">
<title>h_2&#45;&gt;h_3</title>
<path fill="none" stroke="#000000" d="M307.2686,-47C307.2686,-47 422.5497,-47 422.5497,-47"/>
<polygon fill="#000000" stroke="#000000" points="432.5497,-47 422.5497,-51.5001 427.5497,-47 422.5497,-47.0001 422.5497,-47.0001 422.5497,-47.0001 427.5497,-47 422.5496,-42.5001 432.5497,-47 432.5497,-47"/>
<text text-anchor="start" x="362" y="-56.4" font-family="Times,serif" font-size="12.00" fill="#000000">w</text>
<text text-anchor="start" x="372" y="-56.4" font-family="Times,serif" baseline-shift="sub" font-size="12.00" fill="#000000">3</text>
</g>
<!-- h_3&#45;&gt;o_1 -->
<g id="edge5" class="edge">
<title>h_3&#45;&gt;o_1</title>
<path fill="none" stroke="#000000" d="M469.4638,-47C469.4638,-47 528.7478,-47 528.7478,-47"/>
<polygon fill="#000000" stroke="#000000" points="538.7478,-47 528.7478,-51.5001 533.7478,-47 528.7478,-47.0001 528.7478,-47.0001 528.7478,-47.0001 533.7478,-47 528.7478,-42.5001 538.7478,-47 538.7478,-47"/>
<text text-anchor="start" x="496" y="-51.4" font-family="Times,serif" font-size="12.00" fill="#000000">w</text>
<text text-anchor="start" x="506" y="-51.4" font-family="Times,serif" baseline-shift="sub" font-size="12.00" fill="#000000">4</text>
</g>
</g>
</svg>
