<?xml version="1.0" encoding="UTF-8" standalone="no"?>
<!DOCTYPE svg PUBLIC "-//W3C//DTD SVG 1.1//EN"
 "http://www.w3.org/Graphics/SVG/1.1/DTD/svg11.dtd">
<!-- Generated by graphviz version 2.40.1 (20161225.0304)
 -->
<!-- Title: G Pages: 1 -->
<svg width="512pt" height="44pt"
 viewBox="0.00 0.00 512.00 44.00" xmlns="http://www.w3.org/2000/svg" xmlns:xlink="http://www.w3.org/1999/xlink">
<g id="graph0" class="graph" transform="scale(1 1) rotate(0) translate(4 40)">
<title>G</title>
<polygon fill="#ffffff" stroke="transparent" points="-4,4 -4,-40 508,-40 508,4 -4,4"/>
<!-- i_1 -->
<g id="node1" class="node">
<title>i_1</title>
<ellipse fill="#c0c0c0" stroke="#c0c0c0" cx="27" cy="-18" rx="27" ry="18"/>
</g>
<!-- h_1 -->
<g id="node2" class="node">
<title>h_1</title>
<ellipse fill="#d2b48c" stroke="#d2b48c" cx="117" cy="-18" rx="27" ry="18"/>
<text text-anchor="start" x="110" y="-15.3" font-family="Times,serif" font-size="14.00" fill="#000000">b</text>
<text text-anchor="start" x="117" y="-15.3" font-family="Times,serif" baseline-shift="sub" font-size="14.00" fill="#000000">1</text>
</g>
<!-- i_1&#45;&gt;h_1 -->
<g id="edge1" class="edge">
<title>i_1&#45;&gt;h_1</title>
<path fill="none" stroke="#000000" d="M54.003,-18C54.003,-18 79.705,-18 79.705,-18"/>
<polygon fill="#000000" stroke="#000000" points="89.705,-18 79.7051,-22.5001 84.705,-18 79.705,-18.0001 79.705,-18.0001 79.705,-18.0001 84.705,-18 79.705,-13.5001 89.705,-18 89.705,-18"/>
</g>
<!-- h_2 -->
<g id="node3" class="node">
<title>h_2</title>
<ellipse fill="#d2b48c" stroke="#d2b48c" cx="207" cy="-18" rx="27" ry="18"/>
<text text-anchor="start" x="200" y="-15.3" font-family="Times,serif" font-size="14.00" fill="#000000">b</text>
<text text-anchor="start" x="207" y="-15.3" font-family="Times,serif" baseline-shift="sub" font-size="14.00" fill="#000000">2</text>
</g>
<!-- h_1&#45;&gt;h_2 -->
<g id="edge2" class="edge">
<title>h_1&#45;&gt;h_2</title>
<path fill="none" stroke="#000000" d="M144.003,-18C144.003,-18 169.705,-18 169.705,-18"/>
<polygon fill="#000000" stroke="#000000" points="179.705,-18 169.7051,-22.5001 174.705,-18 169.705,-18.0001 169.705,-18.0001 169.705,-18.0001 174.705,-18 169.705,-13.5001 179.705,-18 179.705,-18"/>
</g>
<!-- h_3 -->
<g id="node4" class="node">
<title>h_3</title>
<ellipse fill="#d2b48c" stroke="#d2b48c" cx="297" cy="-18" rx="27" ry="18"/>
<text text-anchor="start" x="290" y="-15.3" font-family="Times,serif" font-size="14.00" fill="#000000">b</text>
<text text-anchor="start" x="297" y="-15.3" font-family="Times,serif" baseline-shift="sub" font-size="14.00" fill="#000000">3</text>
</g>
<!-- h_2&#45;&gt;h_3 -->
<g id="edge3" class="edge">
<title>h_2&#45;&gt;h_3</title>
<path fill="none" stroke="#000000" d="M234.003,-18C234.003,-18 259.705,-18 259.705,-18"/>
<polygon fill="#000000" stroke="#000000" points="269.705,-18 259.7051,-22.5001 264.705,-18 259.705,-18.0001 259.705,-18.0001 259.705,-18.0001 264.705,-18 259.705,-13.5001 269.705,-18 269.705,-18"/>
</g>
<!-- o_0 -->
<g id="node5" class="node">
<title>o_0</title>
<ellipse fill="none" stroke="#000000" stroke-dasharray="5,2" cx="387" cy="-18" rx="27" ry="18"/>
</g>
<!-- h_3&#45;&gt;o_0 -->
<g id="edge4" class="edge">
<title>h_3&#45;&gt;o_0</title>
<path fill="none" stroke="#000000" d="M324.003,-18C324.003,-18 349.705,-18 349.705,-18"/>
<polygon fill="#000000" stroke="#000000" points="359.705,-18 349.7051,-22.5001 354.705,-18 349.705,-18.0001 349.705,-18.0001 349.705,-18.0001 354.705,-18 349.705,-13.5001 359.705,-18 359.705,-18"/>
</g>
<!-- Cost -->
<g id="node6" class="node">
<title>Cost</title>
<ellipse fill="none" stroke="#000000" cx="477" cy="-18" rx="27" ry="18"/>
</g>
<!-- o_0&#45;&gt;Cost -->
<g id="edge5" class="edge">
<title>o_0&#45;&gt;Cost</title>
<path fill="none" stroke="#000000" d="M414.003,-18C414.003,-18 439.705,-18 439.705,-18"/>
<polygon fill="#000000" stroke="#000000" points="449.705,-18 439.7051,-22.5001 444.705,-18 439.705,-18.0001 439.705,-18.0001 439.705,-18.0001 444.705,-18 439.705,-13.5001 449.705,-18 449.705,-18"/>
</g>
</g>
</svg>
