<?xml version="1.0" encoding="UTF-8" standalone="no"?>
<!DOCTYPE svg PUBLIC "-//W3C//DTD SVG 1.1//EN"
 "http://www.w3.org/Graphics/SVG/1.1/DTD/svg11.dtd">
<!-- Generated by graphviz version 2.40.1 (20161225.0304)
 -->
<!-- Title: G Pages: 1 -->
<svg width="506pt" height="239pt"
 viewBox="0.00 0.00 506.00 238.50" xmlns="http://www.w3.org/2000/svg" xmlns:xlink="http://www.w3.org/1999/xlink">
<g id="graph0" class="graph" transform="scale(1 1) rotate(0) translate(4 234.5)">
<title>G</title>
<polygon fill="#ffffff" stroke="transparent" points="-4,4 -4,-234.5 502,-234.5 502,4 -4,4"/>
<!-- x1 -->
<g id="node1" class="node">
<title>x1</title>
<ellipse fill="none" stroke="#000000" stroke-dasharray="1,5" cx="27" cy="-205" rx="21.5" ry="21.5"/>
<text text-anchor="start" x="18.5" y="-202.3" font-family="Times,serif" font-size="14.00" fill="#000000">X</text>
<text text-anchor="start" x="28.5" y="-202.3" font-family="Times,serif" baseline-shift="sub" font-size="14.00" fill="#000000">1</text>
</g>
<!-- o1 -->
<g id="node2" class="node">
<title>o1</title>
<polygon fill="none" stroke="#000000" points="54,-40 0,-40 0,-4 54,-4 54,-40"/>
<text text-anchor="start" x="18.5" y="-19.3" font-family="Times,serif" font-size="14.00" fill="#000000">O</text>
<text text-anchor="start" x="28.5" y="-19.3" font-family="Times,serif" baseline-shift="sub" font-size="14.00" fill="#000000">1</text>
</g>
<!-- x1&#45;&gt;o1 -->
<g id="edge1" class="edge">
<title>x1&#45;&gt;o1</title>
<path fill="none" stroke="#000000" d="M27,-183.2889C27,-183.2889 27,-50.1198 27,-50.1198"/>
<polygon fill="#000000" stroke="#000000" points="30.5001,-50.1197 27,-40.1198 23.5001,-50.1198 30.5001,-50.1197"/>
</g>
<!-- x2 -->
<g id="node3" class="node">
<title>x2</title>
<ellipse fill="none" stroke="#000000" stroke-dasharray="1,5" cx="175" cy="-205" rx="21.5" ry="21.5"/>
<text text-anchor="start" x="166.5" y="-202.3" font-family="Times,serif" font-size="14.00" fill="#000000">X</text>
<text text-anchor="start" x="176.5" y="-202.3" font-family="Times,serif" baseline-shift="sub" font-size="14.00" fill="#000000">2</text>
</g>
<!-- x1&#45;&gt;x2 -->
<g id="edge5" class="edge">
<title>x1&#45;&gt;x2</title>
<path fill="none" stroke="#000000" d="M48.5205,-205C48.5205,-205 143.4536,-205 143.4536,-205"/>
<polygon fill="#000000" stroke="#000000" points="143.4536,-208.5001 153.4536,-205 143.4535,-201.5001 143.4536,-208.5001"/>
<text text-anchor="middle" x="101" y="-208.8" font-family="Times,serif" font-size="14.00" fill="#000000">状态转移</text>
</g>
<!-- o2 -->
<g id="node4" class="node">
<title>o2</title>
<polygon fill="none" stroke="#000000" points="202,-40 148,-40 148,-4 202,-4 202,-40"/>
<text text-anchor="start" x="166.5" y="-19.3" font-family="Times,serif" font-size="14.00" fill="#000000">O</text>
<text text-anchor="start" x="176.5" y="-19.3" font-family="Times,serif" baseline-shift="sub" font-size="14.00" fill="#000000">2</text>
</g>
<!-- x2&#45;&gt;o2 -->
<g id="edge2" class="edge">
<title>x2&#45;&gt;o2</title>
<path fill="none" stroke="#000000" d="M175,-183.2889C175,-183.2889 175,-50.1198 175,-50.1198"/>
<polygon fill="#000000" stroke="#000000" points="178.5001,-50.1197 175,-40.1198 171.5001,-50.1198 178.5001,-50.1197"/>
</g>
<!-- x_ -->
<g id="node5" class="node">
<title>x_</title>
<ellipse fill="none" stroke="#000000" stroke-width="0" stroke-dasharray="1,5" cx="323" cy="-205" rx="25.5" ry="25.5"/>
<text text-anchor="middle" x="323" y="-201.3" font-family="Times,serif" font-size="14.00" fill="#000000">......</text>
</g>
<!-- x2&#45;&gt;x_ -->
<g id="edge6" class="edge">
<title>x2&#45;&gt;x_</title>
<path fill="none" stroke="#000000" d="M196.5205,-205C196.5205,-205 287.4776,-205 287.4776,-205"/>
<polygon fill="#000000" stroke="#000000" points="287.4776,-208.5001 297.4776,-205 287.4776,-201.5001 287.4776,-208.5001"/>
<text text-anchor="middle" x="249" y="-208.8" font-family="Times,serif" font-size="14.00" fill="#000000">状态转移</text>
</g>
<!-- o_ -->
<g id="node6" class="node">
<title>o_</title>
<polygon fill="none" stroke="#000000" stroke-width="0" points="350,-36 296,-36 296,0 350,0 350,-36"/>
<text text-anchor="middle" x="323" y="-14.3" font-family="Times,serif" font-size="14.00" fill="#000000">......</text>
</g>
<!-- x_&#45;&gt;o_ -->
<g id="edge3" class="edge">
<title>x_&#45;&gt;o_</title>
<path fill="none" stroke="#000000" stroke-width="0" d="M323,-179.3905C323,-140.9796 323,-69.4029 323,-36.0152"/>
</g>
<!-- xt -->
<g id="node7" class="node">
<title>xt</title>
<ellipse fill="none" stroke="#000000" stroke-dasharray="1,5" cx="471" cy="-205" rx="22" ry="22"/>
<text text-anchor="start" x="462" y="-202.3" font-family="Times,serif" font-size="14.00" fill="#000000">X</text>
<text text-anchor="start" x="472" y="-202.3" font-family="Times,serif" baseline-shift="sub" font-size="14.00" fill="#000000">T</text>
</g>
<!-- x_&#45;&gt;xt -->
<g id="edge7" class="edge">
<title>x_&#45;&gt;xt</title>
<path fill="none" stroke="#000000" d="M348.7796,-205C348.7796,-205 438.8929,-205 438.8929,-205"/>
<polygon fill="#000000" stroke="#000000" points="438.8929,-208.5001 448.8929,-205 438.8929,-201.5001 438.8929,-208.5001"/>
<text text-anchor="middle" x="397" y="-208.8" font-family="Times,serif" font-size="14.00" fill="#000000">状态转移</text>
</g>
<!-- ot -->
<g id="node8" class="node">
<title>ot</title>
<polygon fill="none" stroke="#000000" points="498,-39 444,-39 444,-3 498,-3 498,-39"/>
<text text-anchor="start" x="462" y="-18.3" font-family="Times,serif" font-size="14.00" fill="#000000">O</text>
<text text-anchor="start" x="472" y="-18.3" font-family="Times,serif" baseline-shift="sub" font-size="14.00" fill="#000000">T</text>
</g>
<!-- xt&#45;&gt;ot -->
<g id="edge4" class="edge">
<title>xt&#45;&gt;ot</title>
<path fill="none" stroke="#000000" d="M471,-182.8053C471,-182.8053 471,-49.135 471,-49.135"/>
<polygon fill="#000000" stroke="#000000" points="474.5001,-49.1349 471,-39.135 467.5001,-49.135 474.5001,-49.1349"/>
</g>
</g>
</svg>
