<?xml version="1.0" encoding="UTF-8" standalone="no"?>
<!DOCTYPE svg PUBLIC "-//W3C//DTD SVG 1.1//EN"
 "http://www.w3.org/Graphics/SVG/1.1/DTD/svg11.dtd">
<!-- Generated by graphviz version 2.40.1 (20161225.0304)
 -->
<!-- Title: G Pages: 1 -->
<svg width="298pt" height="259pt"
 viewBox="0.00 0.00 298.00 259.00" xmlns="http://www.w3.org/2000/svg" xmlns:xlink="http://www.w3.org/1999/xlink">
<g id="graph0" class="graph" transform="scale(1 1) rotate(0) translate(4 255)">
<title>G</title>
<polygon fill="#ffffff" stroke="transparent" points="-4,4 -4,-255 294,-255 294,4 -4,4"/>
<g id="clust1" class="cluster">
<title>cluster_0</title>
<polygon fill="none" stroke="#ffffff" points="7,-48 7,-203 61,-203 61,-48 7,-48"/>
<text text-anchor="middle" x="34" y="-187.8" font-family="Times,serif" font-size="14.00" fill="#000000">layer 1</text>
</g>
<g id="clust2" class="cluster">
<title>cluster_1</title>
<polygon fill="none" stroke="#ffffff" points="81,-8 81,-243 135,-243 135,-8 81,-8"/>
<text text-anchor="middle" x="108" y="-227.8" font-family="Times,serif" font-size="14.00" fill="#000000">layer 2</text>
</g>
<g id="clust3" class="cluster">
<title>cluster_2</title>
<polygon fill="none" stroke="#ffffff" points="155,-8 155,-243 209,-243 209,-8 155,-8"/>
<text text-anchor="middle" x="182" y="-227.8" font-family="Times,serif" font-size="14.00" fill="#000000">layer 3</text>
</g>
<g id="clust4" class="cluster">
<title>cluster_3</title>
<polygon fill="none" stroke="#ffffff" points="229,-28 229,-223 283,-223 283,-28 229,-28"/>
<text text-anchor="middle" x="256" y="-207.8" font-family="Times,serif" font-size="14.00" fill="#000000">layer 4</text>
</g>
<!-- x1 -->
<g id="node1" class="node">
<title>x1</title>
<ellipse fill="none" stroke="#00008b" cx="34" cy="-114" rx="18" ry="18"/>
</g>
<!-- a12 -->
<g id="node4" class="node">
<title>a12</title>
<ellipse fill="none" stroke="#ee0000" cx="108" cy="-74" rx="18" ry="18"/>
</g>
<!-- x1&#45;&gt;a12 -->
<g id="edge1" class="edge">
<title>x1&#45;&gt;a12</title>
<path fill="none" stroke="#000000" d="M50.0569,-105.3206C59.657,-100.1313 72.0619,-93.426 82.9293,-87.5518"/>
<polygon fill="#000000" stroke="#000000" points="84.8417,-90.4967 91.9744,-82.6625 81.513,-84.3387 84.8417,-90.4967"/>
</g>
<!-- a22 -->
<g id="node5" class="node">
<title>a22</title>
<ellipse fill="none" stroke="#ee0000" cx="108" cy="-34" rx="18" ry="18"/>
</g>
<!-- x1&#45;&gt;a22 -->
<g id="edge2" class="edge">
<title>x1&#45;&gt;a22</title>
<path fill="none" stroke="#000000" d="M46.5531,-100.4291C58.1042,-87.9414 75.4091,-69.2334 88.7141,-54.8496"/>
<polygon fill="#000000" stroke="#000000" points="91.4112,-57.0882 95.6323,-47.3705 86.2725,-52.3349 91.4112,-57.0882"/>
</g>
<!-- a32 -->
<g id="node6" class="node">
<title>a32</title>
<ellipse fill="none" stroke="#ee0000" cx="108" cy="-194" rx="18" ry="18"/>
</g>
<!-- x1&#45;&gt;a32 -->
<g id="edge3" class="edge">
<title>x1&#45;&gt;a32</title>
<path fill="none" stroke="#000000" d="M46.5531,-127.5709C58.1042,-140.0586 75.4091,-158.7666 88.7141,-173.1504"/>
<polygon fill="#000000" stroke="#000000" points="86.2725,-175.6651 95.6323,-180.6295 91.4112,-170.9118 86.2725,-175.6651"/>
</g>
<!-- a42 -->
<g id="node7" class="node">
<title>a42</title>
<ellipse fill="none" stroke="#ee0000" cx="108" cy="-154" rx="18" ry="18"/>
</g>
<!-- x1&#45;&gt;a42 -->
<g id="edge4" class="edge">
<title>x1&#45;&gt;a42</title>
<path fill="none" stroke="#000000" d="M50.0569,-122.6794C59.657,-127.8687 72.0619,-134.574 82.9293,-140.4482"/>
<polygon fill="#000000" stroke="#000000" points="81.513,-143.6613 91.9744,-145.3375 84.8417,-137.5033 81.513,-143.6613"/>
</g>
<!-- a52 -->
<g id="node8" class="node">
<title>a52</title>
<ellipse fill="none" stroke="#ee0000" cx="108" cy="-114" rx="18" ry="18"/>
</g>
<!-- x1&#45;&gt;a52 -->
<g id="edge5" class="edge">
<title>x1&#45;&gt;a52</title>
<path fill="none" stroke="#000000" d="M52.2921,-114C60.5365,-114 70.4624,-114 79.6378,-114"/>
<polygon fill="#000000" stroke="#000000" points="79.9183,-117.5001 89.9183,-114 79.9182,-110.5001 79.9183,-117.5001"/>
</g>
<!-- x2 -->
<g id="node2" class="node">
<title>x2</title>
<ellipse fill="none" stroke="#00008b" cx="34" cy="-74" rx="18" ry="18"/>
</g>
<!-- x2&#45;&gt;a12 -->
<g id="edge6" class="edge">
<title>x2&#45;&gt;a12</title>
<path fill="none" stroke="#000000" d="M52.2921,-74C60.5365,-74 70.4624,-74 79.6378,-74"/>
<polygon fill="#000000" stroke="#000000" points="79.9183,-77.5001 89.9183,-74 79.9182,-70.5001 79.9183,-77.5001"/>
</g>
<!-- x2&#45;&gt;a22 -->
<g id="edge7" class="edge">
<title>x2&#45;&gt;a22</title>
<path fill="none" stroke="#000000" d="M50.0569,-65.3206C59.657,-60.1313 72.0619,-53.426 82.9293,-47.5518"/>
<polygon fill="#000000" stroke="#000000" points="84.8417,-50.4967 91.9744,-42.6625 81.513,-44.3387 84.8417,-50.4967"/>
</g>
<!-- x2&#45;&gt;a32 -->
<g id="edge8" class="edge">
<title>x2&#45;&gt;a32</title>
<path fill="none" stroke="#000000" d="M43.6742,-89.6879C56.2497,-110.0806 78.3404,-145.9034 93.0726,-169.7934"/>
<polygon fill="#000000" stroke="#000000" points="90.0954,-171.6336 98.3234,-178.3082 96.0536,-167.9594 90.0954,-171.6336"/>
</g>
<!-- x2&#45;&gt;a42 -->
<g id="edge9" class="edge">
<title>x2&#45;&gt;a42</title>
<path fill="none" stroke="#000000" d="M46.5531,-87.5709C58.1042,-100.0586 75.4091,-118.7666 88.7141,-133.1504"/>
<polygon fill="#000000" stroke="#000000" points="86.2725,-135.6651 95.6323,-140.6295 91.4112,-130.9118 86.2725,-135.6651"/>
</g>
<!-- x2&#45;&gt;a52 -->
<g id="edge10" class="edge">
<title>x2&#45;&gt;a52</title>
<path fill="none" stroke="#000000" d="M50.0569,-82.6794C59.657,-87.8687 72.0619,-94.574 82.9293,-100.4482"/>
<polygon fill="#000000" stroke="#000000" points="81.513,-103.6613 91.9744,-105.3375 84.8417,-97.5033 81.513,-103.6613"/>
</g>
<!-- x3 -->
<g id="node3" class="node">
<title>x3</title>
<ellipse fill="none" stroke="#00008b" cx="34" cy="-154" rx="18" ry="18"/>
</g>
<!-- x3&#45;&gt;a12 -->
<g id="edge11" class="edge">
<title>x3&#45;&gt;a12</title>
<path fill="none" stroke="#000000" d="M46.5531,-140.4291C58.1042,-127.9414 75.4091,-109.2334 88.7141,-94.8496"/>
<polygon fill="#000000" stroke="#000000" points="91.4112,-97.0882 95.6323,-87.3705 86.2725,-92.3349 91.4112,-97.0882"/>
</g>
<!-- x3&#45;&gt;a22 -->
<g id="edge12" class="edge">
<title>x3&#45;&gt;a22</title>
<path fill="none" stroke="#000000" d="M43.6742,-138.3121C56.2497,-117.9194 78.3404,-82.0966 93.0726,-58.2066"/>
<polygon fill="#000000" stroke="#000000" points="96.0536,-60.0406 98.3234,-49.6918 90.0954,-56.3664 96.0536,-60.0406"/>
</g>
<!-- x3&#45;&gt;a32 -->
<g id="edge13" class="edge">
<title>x3&#45;&gt;a32</title>
<path fill="none" stroke="#000000" d="M50.0569,-162.6794C59.657,-167.8687 72.0619,-174.574 82.9293,-180.4482"/>
<polygon fill="#000000" stroke="#000000" points="81.513,-183.6613 91.9744,-185.3375 84.8417,-177.5033 81.513,-183.6613"/>
</g>
<!-- x3&#45;&gt;a42 -->
<g id="edge14" class="edge">
<title>x3&#45;&gt;a42</title>
<path fill="none" stroke="#000000" d="M52.2921,-154C60.5365,-154 70.4624,-154 79.6378,-154"/>
<polygon fill="#000000" stroke="#000000" points="79.9183,-157.5001 89.9183,-154 79.9182,-150.5001 79.9183,-157.5001"/>
</g>
<!-- x3&#45;&gt;a52 -->
<g id="edge15" class="edge">
<title>x3&#45;&gt;a52</title>
<path fill="none" stroke="#000000" d="M50.0569,-145.3206C59.657,-140.1313 72.0619,-133.426 82.9293,-127.5518"/>
<polygon fill="#000000" stroke="#000000" points="84.8417,-130.4967 91.9744,-122.6625 81.513,-124.3387 84.8417,-130.4967"/>
</g>
<!-- a13 -->
<g id="node9" class="node">
<title>a13</title>
<ellipse fill="none" stroke="#ee0000" cx="182" cy="-74" rx="18" ry="18"/>
</g>
<!-- a12&#45;&gt;a13 -->
<g id="edge16" class="edge">
<title>a12&#45;&gt;a13</title>
<path fill="none" stroke="#000000" d="M126.2921,-74C134.5365,-74 144.4624,-74 153.6378,-74"/>
<polygon fill="#000000" stroke="#000000" points="153.9183,-77.5001 163.9183,-74 153.9182,-70.5001 153.9183,-77.5001"/>
</g>
<!-- a23 -->
<g id="node10" class="node">
<title>a23</title>
<ellipse fill="none" stroke="#ee0000" cx="182" cy="-34" rx="18" ry="18"/>
</g>
<!-- a12&#45;&gt;a23 -->
<g id="edge17" class="edge">
<title>a12&#45;&gt;a23</title>
<path fill="none" stroke="#000000" d="M124.0569,-65.3206C133.657,-60.1313 146.0619,-53.426 156.9293,-47.5518"/>
<polygon fill="#000000" stroke="#000000" points="158.8417,-50.4967 165.9744,-42.6625 155.513,-44.3387 158.8417,-50.4967"/>
</g>
<!-- a33 -->
<g id="node11" class="node">
<title>a33</title>
<ellipse fill="none" stroke="#ee0000" cx="182" cy="-194" rx="18" ry="18"/>
</g>
<!-- a12&#45;&gt;a33 -->
<g id="edge18" class="edge">
<title>a12&#45;&gt;a33</title>
<path fill="none" stroke="#000000" d="M117.6742,-89.6879C130.2497,-110.0806 152.3404,-145.9034 167.0726,-169.7934"/>
<polygon fill="#000000" stroke="#000000" points="164.0954,-171.6336 172.3234,-178.3082 170.0536,-167.9594 164.0954,-171.6336"/>
</g>
<!-- a43 -->
<g id="node12" class="node">
<title>a43</title>
<ellipse fill="none" stroke="#ee0000" cx="182" cy="-154" rx="18" ry="18"/>
</g>
<!-- a12&#45;&gt;a43 -->
<g id="edge19" class="edge">
<title>a12&#45;&gt;a43</title>
<path fill="none" stroke="#000000" d="M120.5531,-87.5709C132.1042,-100.0586 149.4091,-118.7666 162.7141,-133.1504"/>
<polygon fill="#000000" stroke="#000000" points="160.2725,-135.6651 169.6323,-140.6295 165.4112,-130.9118 160.2725,-135.6651"/>
</g>
<!-- a53 -->
<g id="node13" class="node">
<title>a53</title>
<ellipse fill="none" stroke="#ee0000" cx="182" cy="-114" rx="18" ry="18"/>
</g>
<!-- a12&#45;&gt;a53 -->
<g id="edge20" class="edge">
<title>a12&#45;&gt;a53</title>
<path fill="none" stroke="#000000" d="M124.0569,-82.6794C133.657,-87.8687 146.0619,-94.574 156.9293,-100.4482"/>
<polygon fill="#000000" stroke="#000000" points="155.513,-103.6613 165.9744,-105.3375 158.8417,-97.5033 155.513,-103.6613"/>
</g>
<!-- a22&#45;&gt;a13 -->
<g id="edge21" class="edge">
<title>a22&#45;&gt;a13</title>
<path fill="none" stroke="#000000" d="M124.0569,-42.6794C133.657,-47.8687 146.0619,-54.574 156.9293,-60.4482"/>
<polygon fill="#000000" stroke="#000000" points="155.513,-63.6613 165.9744,-65.3375 158.8417,-57.5033 155.513,-63.6613"/>
</g>
<!-- a22&#45;&gt;a23 -->
<g id="edge22" class="edge">
<title>a22&#45;&gt;a23</title>
<path fill="none" stroke="#000000" d="M126.2921,-34C134.5365,-34 144.4624,-34 153.6378,-34"/>
<polygon fill="#000000" stroke="#000000" points="153.9183,-37.5001 163.9183,-34 153.9182,-30.5001 153.9183,-37.5001"/>
</g>
<!-- a22&#45;&gt;a33 -->
<g id="edge23" class="edge">
<title>a22&#45;&gt;a33</title>
<path fill="none" stroke="#000000" d="M115.6406,-50.5202C128.5467,-78.4254 154.7542,-135.0902 170.0898,-168.2481"/>
<polygon fill="#000000" stroke="#000000" points="166.9156,-169.723 174.2901,-177.33 173.269,-166.7845 166.9156,-169.723"/>
</g>
<!-- a22&#45;&gt;a43 -->
<g id="edge24" class="edge">
<title>a22&#45;&gt;a43</title>
<path fill="none" stroke="#000000" d="M117.6742,-49.6879C130.2497,-70.0806 152.3404,-105.9034 167.0726,-129.7934"/>
<polygon fill="#000000" stroke="#000000" points="164.0954,-131.6336 172.3234,-138.3082 170.0536,-127.9594 164.0954,-131.6336"/>
</g>
<!-- a22&#45;&gt;a53 -->
<g id="edge25" class="edge">
<title>a22&#45;&gt;a53</title>
<path fill="none" stroke="#000000" d="M120.5531,-47.5709C132.1042,-60.0586 149.4091,-78.7666 162.7141,-93.1504"/>
<polygon fill="#000000" stroke="#000000" points="160.2725,-95.6651 169.6323,-100.6295 165.4112,-90.9118 160.2725,-95.6651"/>
</g>
<!-- a32&#45;&gt;a13 -->
<g id="edge26" class="edge">
<title>a32&#45;&gt;a13</title>
<path fill="none" stroke="#000000" d="M117.6742,-178.3121C130.2497,-157.9194 152.3404,-122.0966 167.0726,-98.2066"/>
<polygon fill="#000000" stroke="#000000" points="170.0536,-100.0406 172.3234,-89.6918 164.0954,-96.3664 170.0536,-100.0406"/>
</g>
<!-- a32&#45;&gt;a23 -->
<g id="edge27" class="edge">
<title>a32&#45;&gt;a23</title>
<path fill="none" stroke="#000000" d="M115.6406,-177.4798C128.5467,-149.5746 154.7542,-92.9098 170.0898,-59.7519"/>
<polygon fill="#000000" stroke="#000000" points="173.269,-61.2155 174.2901,-50.67 166.9156,-58.277 173.269,-61.2155"/>
</g>
<!-- a32&#45;&gt;a33 -->
<g id="edge28" class="edge">
<title>a32&#45;&gt;a33</title>
<path fill="none" stroke="#000000" d="M126.2921,-194C134.5365,-194 144.4624,-194 153.6378,-194"/>
<polygon fill="#000000" stroke="#000000" points="153.9183,-197.5001 163.9183,-194 153.9182,-190.5001 153.9183,-197.5001"/>
</g>
<!-- a32&#45;&gt;a43 -->
<g id="edge29" class="edge">
<title>a32&#45;&gt;a43</title>
<path fill="none" stroke="#000000" d="M124.0569,-185.3206C133.657,-180.1313 146.0619,-173.426 156.9293,-167.5518"/>
<polygon fill="#000000" stroke="#000000" points="158.8417,-170.4967 165.9744,-162.6625 155.513,-164.3387 158.8417,-170.4967"/>
</g>
<!-- a32&#45;&gt;a53 -->
<g id="edge30" class="edge">
<title>a32&#45;&gt;a53</title>
<path fill="none" stroke="#000000" d="M120.5531,-180.4291C132.1042,-167.9414 149.4091,-149.2334 162.7141,-134.8496"/>
<polygon fill="#000000" stroke="#000000" points="165.4112,-137.0882 169.6323,-127.3705 160.2725,-132.3349 165.4112,-137.0882"/>
</g>
<!-- a42&#45;&gt;a13 -->
<g id="edge31" class="edge">
<title>a42&#45;&gt;a13</title>
<path fill="none" stroke="#000000" d="M120.5531,-140.4291C132.1042,-127.9414 149.4091,-109.2334 162.7141,-94.8496"/>
<polygon fill="#000000" stroke="#000000" points="165.4112,-97.0882 169.6323,-87.3705 160.2725,-92.3349 165.4112,-97.0882"/>
</g>
<!-- a42&#45;&gt;a23 -->
<g id="edge32" class="edge">
<title>a42&#45;&gt;a23</title>
<path fill="none" stroke="#000000" d="M117.6742,-138.3121C130.2497,-117.9194 152.3404,-82.0966 167.0726,-58.2066"/>
<polygon fill="#000000" stroke="#000000" points="170.0536,-60.0406 172.3234,-49.6918 164.0954,-56.3664 170.0536,-60.0406"/>
</g>
<!-- a42&#45;&gt;a33 -->
<g id="edge33" class="edge">
<title>a42&#45;&gt;a33</title>
<path fill="none" stroke="#000000" d="M124.0569,-162.6794C133.657,-167.8687 146.0619,-174.574 156.9293,-180.4482"/>
<polygon fill="#000000" stroke="#000000" points="155.513,-183.6613 165.9744,-185.3375 158.8417,-177.5033 155.513,-183.6613"/>
</g>
<!-- a42&#45;&gt;a43 -->
<g id="edge34" class="edge">
<title>a42&#45;&gt;a43</title>
<path fill="none" stroke="#000000" d="M126.2921,-154C134.5365,-154 144.4624,-154 153.6378,-154"/>
<polygon fill="#000000" stroke="#000000" points="153.9183,-157.5001 163.9183,-154 153.9182,-150.5001 153.9183,-157.5001"/>
</g>
<!-- a42&#45;&gt;a53 -->
<g id="edge35" class="edge">
<title>a42&#45;&gt;a53</title>
<path fill="none" stroke="#000000" d="M124.0569,-145.3206C133.657,-140.1313 146.0619,-133.426 156.9293,-127.5518"/>
<polygon fill="#000000" stroke="#000000" points="158.8417,-130.4967 165.9744,-122.6625 155.513,-124.3387 158.8417,-130.4967"/>
</g>
<!-- a52&#45;&gt;a13 -->
<g id="edge36" class="edge">
<title>a52&#45;&gt;a13</title>
<path fill="none" stroke="#000000" d="M124.0569,-105.3206C133.657,-100.1313 146.0619,-93.426 156.9293,-87.5518"/>
<polygon fill="#000000" stroke="#000000" points="158.8417,-90.4967 165.9744,-82.6625 155.513,-84.3387 158.8417,-90.4967"/>
</g>
<!-- a52&#45;&gt;a23 -->
<g id="edge37" class="edge">
<title>a52&#45;&gt;a23</title>
<path fill="none" stroke="#000000" d="M120.5531,-100.4291C132.1042,-87.9414 149.4091,-69.2334 162.7141,-54.8496"/>
<polygon fill="#000000" stroke="#000000" points="165.4112,-57.0882 169.6323,-47.3705 160.2725,-52.3349 165.4112,-57.0882"/>
</g>
<!-- a52&#45;&gt;a33 -->
<g id="edge38" class="edge">
<title>a52&#45;&gt;a33</title>
<path fill="none" stroke="#000000" d="M120.5531,-127.5709C132.1042,-140.0586 149.4091,-158.7666 162.7141,-173.1504"/>
<polygon fill="#000000" stroke="#000000" points="160.2725,-175.6651 169.6323,-180.6295 165.4112,-170.9118 160.2725,-175.6651"/>
</g>
<!-- a52&#45;&gt;a43 -->
<g id="edge39" class="edge">
<title>a52&#45;&gt;a43</title>
<path fill="none" stroke="#000000" d="M124.0569,-122.6794C133.657,-127.8687 146.0619,-134.574 156.9293,-140.4482"/>
<polygon fill="#000000" stroke="#000000" points="155.513,-143.6613 165.9744,-145.3375 158.8417,-137.5033 155.513,-143.6613"/>
</g>
<!-- a52&#45;&gt;a53 -->
<g id="edge40" class="edge">
<title>a52&#45;&gt;a53</title>
<path fill="none" stroke="#000000" d="M126.2921,-114C134.5365,-114 144.4624,-114 153.6378,-114"/>
<polygon fill="#000000" stroke="#000000" points="153.9183,-117.5001 163.9183,-114 153.9182,-110.5001 153.9183,-117.5001"/>
</g>
<!-- O1 -->
<g id="node14" class="node">
<title>O1</title>
<ellipse fill="none" stroke="#4eee94" cx="256" cy="-174" rx="18" ry="18"/>
</g>
<!-- a13&#45;&gt;O1 -->
<g id="edge41" class="edge">
<title>a13&#45;&gt;O1</title>
<path fill="none" stroke="#000000" d="M192.919,-88.7553C205.1214,-105.2452 225.0243,-132.1409 239.2097,-151.3104"/>
<polygon fill="#000000" stroke="#000000" points="236.5149,-153.5528 245.2768,-159.5092 242.1418,-149.3888 236.5149,-153.5528"/>
</g>
<!-- O2 -->
<g id="node15" class="node">
<title>O2</title>
<ellipse fill="none" stroke="#4eee94" cx="256" cy="-134" rx="18" ry="18"/>
</g>
<!-- a13&#45;&gt;O2 -->
<g id="edge42" class="edge">
<title>a13&#45;&gt;O2</title>
<path fill="none" stroke="#000000" d="M196.2679,-85.5686C206.9147,-94.2011 221.6615,-106.1579 233.8383,-116.031"/>
<polygon fill="#000000" stroke="#000000" points="231.804,-118.8875 241.7759,-122.4669 236.2126,-113.4502 231.804,-118.8875"/>
</g>
<!-- O3 -->
<g id="node16" class="node">
<title>O3</title>
<ellipse fill="none" stroke="#4eee94" cx="256" cy="-94" rx="18" ry="18"/>
</g>
<!-- a13&#45;&gt;O3 -->
<g id="edge43" class="edge">
<title>a13&#45;&gt;O3</title>
<path fill="none" stroke="#000000" d="M199.537,-78.7397C208.292,-81.1059 219.0794,-84.0215 228.8716,-86.668"/>
<polygon fill="#000000" stroke="#000000" points="228.0221,-90.0639 238.5889,-89.2943 229.8485,-83.3064 228.0221,-90.0639"/>
</g>
<!-- O4 -->
<g id="node17" class="node">
<title>O4</title>
<ellipse fill="none" stroke="#4eee94" cx="256" cy="-54" rx="18" ry="18"/>
</g>
<!-- a13&#45;&gt;O4 -->
<g id="edge44" class="edge">
<title>a13&#45;&gt;O4</title>
<path fill="none" stroke="#000000" d="M199.537,-69.2603C208.292,-66.8941 219.0794,-63.9785 228.8716,-61.332"/>
<polygon fill="#000000" stroke="#000000" points="229.8485,-64.6936 238.5889,-58.7057 228.0221,-57.9361 229.8485,-64.6936"/>
</g>
<!-- a23&#45;&gt;O1 -->
<g id="edge45" class="edge">
<title>a23&#45;&gt;O1</title>
<path fill="none" stroke="#000000" d="M190.4887,-50.0598C203.2451,-74.1935 227.474,-120.0318 242.6227,-148.6916"/>
<polygon fill="#000000" stroke="#000000" points="239.6149,-150.4909 247.3823,-157.6963 245.8035,-147.2197 239.6149,-150.4909"/>
</g>
<!-- a23&#45;&gt;O2 -->
<g id="edge46" class="edge">
<title>a23&#45;&gt;O2</title>
<path fill="none" stroke="#000000" d="M192.919,-48.7553C205.1214,-65.2452 225.0243,-92.1409 239.2097,-111.3104"/>
<polygon fill="#000000" stroke="#000000" points="236.5149,-113.5528 245.2768,-119.5092 242.1418,-109.3888 236.5149,-113.5528"/>
</g>
<!-- a23&#45;&gt;O3 -->
<g id="edge47" class="edge">
<title>a23&#45;&gt;O3</title>
<path fill="none" stroke="#000000" d="M196.2679,-45.5686C206.9147,-54.2011 221.6615,-66.1579 233.8383,-76.031"/>
<polygon fill="#000000" stroke="#000000" points="231.804,-78.8875 241.7759,-82.4669 236.2126,-73.4502 231.804,-78.8875"/>
</g>
<!-- a23&#45;&gt;O4 -->
<g id="edge48" class="edge">
<title>a23&#45;&gt;O4</title>
<path fill="none" stroke="#000000" d="M199.537,-38.7397C208.292,-41.1059 219.0794,-44.0215 228.8716,-46.668"/>
<polygon fill="#000000" stroke="#000000" points="228.0221,-50.0639 238.5889,-49.2943 229.8485,-43.3064 228.0221,-50.0639"/>
</g>
<!-- a33&#45;&gt;O1 -->
<g id="edge49" class="edge">
<title>a33&#45;&gt;O1</title>
<path fill="none" stroke="#000000" d="M199.537,-189.2603C208.292,-186.8941 219.0794,-183.9785 228.8716,-181.332"/>
<polygon fill="#000000" stroke="#000000" points="229.8485,-184.6936 238.5889,-178.7057 228.0221,-177.9361 229.8485,-184.6936"/>
</g>
<!-- a33&#45;&gt;O2 -->
<g id="edge50" class="edge">
<title>a33&#45;&gt;O2</title>
<path fill="none" stroke="#000000" d="M196.2679,-182.4314C206.9147,-173.7989 221.6615,-161.8421 233.8383,-151.969"/>
<polygon fill="#000000" stroke="#000000" points="236.2126,-154.5498 241.7759,-145.5331 231.804,-149.1125 236.2126,-154.5498"/>
</g>
<!-- a33&#45;&gt;O3 -->
<g id="edge51" class="edge">
<title>a33&#45;&gt;O3</title>
<path fill="none" stroke="#000000" d="M192.919,-179.2447C205.1214,-162.7548 225.0243,-135.8591 239.2097,-116.6896"/>
<polygon fill="#000000" stroke="#000000" points="242.1418,-118.6112 245.2768,-108.4908 236.5149,-114.4472 242.1418,-118.6112"/>
</g>
<!-- a33&#45;&gt;O4 -->
<g id="edge52" class="edge">
<title>a33&#45;&gt;O4</title>
<path fill="none" stroke="#000000" d="M190.4887,-177.9402C203.2451,-153.8065 227.474,-107.9682 242.6227,-79.3084"/>
<polygon fill="#000000" stroke="#000000" points="245.8035,-80.7803 247.3823,-70.3037 239.6149,-77.5091 245.8035,-80.7803"/>
</g>
<!-- a43&#45;&gt;O1 -->
<g id="edge53" class="edge">
<title>a43&#45;&gt;O1</title>
<path fill="none" stroke="#000000" d="M199.537,-158.7397C208.292,-161.1059 219.0794,-164.0215 228.8716,-166.668"/>
<polygon fill="#000000" stroke="#000000" points="228.0221,-170.0639 238.5889,-169.2943 229.8485,-163.3064 228.0221,-170.0639"/>
</g>
<!-- a43&#45;&gt;O2 -->
<g id="edge54" class="edge">
<title>a43&#45;&gt;O2</title>
<path fill="none" stroke="#000000" d="M199.537,-149.2603C208.292,-146.8941 219.0794,-143.9785 228.8716,-141.332"/>
<polygon fill="#000000" stroke="#000000" points="229.8485,-144.6936 238.5889,-138.7057 228.0221,-137.9361 229.8485,-144.6936"/>
</g>
<!-- a43&#45;&gt;O3 -->
<g id="edge55" class="edge">
<title>a43&#45;&gt;O3</title>
<path fill="none" stroke="#000000" d="M196.2679,-142.4314C206.9147,-133.7989 221.6615,-121.8421 233.8383,-111.969"/>
<polygon fill="#000000" stroke="#000000" points="236.2126,-114.5498 241.7759,-105.5331 231.804,-109.1125 236.2126,-114.5498"/>
</g>
<!-- a43&#45;&gt;O4 -->
<g id="edge56" class="edge">
<title>a43&#45;&gt;O4</title>
<path fill="none" stroke="#000000" d="M192.919,-139.2447C205.1214,-122.7548 225.0243,-95.8591 239.2097,-76.6896"/>
<polygon fill="#000000" stroke="#000000" points="242.1418,-78.6112 245.2768,-68.4908 236.5149,-74.4472 242.1418,-78.6112"/>
</g>
<!-- a53&#45;&gt;O1 -->
<g id="edge57" class="edge">
<title>a53&#45;&gt;O1</title>
<path fill="none" stroke="#000000" d="M196.2679,-125.5686C206.9147,-134.2011 221.6615,-146.1579 233.8383,-156.031"/>
<polygon fill="#000000" stroke="#000000" points="231.804,-158.8875 241.7759,-162.4669 236.2126,-153.4502 231.804,-158.8875"/>
</g>
<!-- a53&#45;&gt;O2 -->
<g id="edge58" class="edge">
<title>a53&#45;&gt;O2</title>
<path fill="none" stroke="#000000" d="M199.537,-118.7397C208.292,-121.1059 219.0794,-124.0215 228.8716,-126.668"/>
<polygon fill="#000000" stroke="#000000" points="228.0221,-130.0639 238.5889,-129.2943 229.8485,-123.3064 228.0221,-130.0639"/>
</g>
<!-- a53&#45;&gt;O3 -->
<g id="edge59" class="edge">
<title>a53&#45;&gt;O3</title>
<path fill="none" stroke="#000000" d="M199.537,-109.2603C208.292,-106.8941 219.0794,-103.9785 228.8716,-101.332"/>
<polygon fill="#000000" stroke="#000000" points="229.8485,-104.6936 238.5889,-98.7057 228.0221,-97.9361 229.8485,-104.6936"/>
</g>
<!-- a53&#45;&gt;O4 -->
<g id="edge60" class="edge">
<title>a53&#45;&gt;O4</title>
<path fill="none" stroke="#000000" d="M196.2679,-102.4314C206.9147,-93.7989 221.6615,-81.8421 233.8383,-71.969"/>
<polygon fill="#000000" stroke="#000000" points="236.2126,-74.5498 241.7759,-65.5331 231.804,-69.1125 236.2126,-74.5498"/>
</g>
</g>
</svg>
