<?xml version="1.0" encoding="UTF-8" standalone="no"?>
<!DOCTYPE svg PUBLIC "-//W3C//DTD SVG 1.1//EN"
 "http://www.w3.org/Graphics/SVG/1.1/DTD/svg11.dtd">
<!-- Generated by graphviz version 2.40.1 (20161225.0304)
 -->
<!-- Title: A Pages: 1 -->
<svg width="360pt" height="283pt"
 viewBox="72.00 72.00 288.00 210.96" xmlns="http://www.w3.org/2000/svg" xmlns:xlink="http://www.w3.org/1999/xlink">
<g id="graph0" class="graph" transform="scale(.7877 .7877) rotate(0) translate(95.4 263.8)">
<title>A</title>
<polygon fill="#ffffff" stroke="transparent" points="-4,4 -4,-172.4 270.2,-172.4 270.2,4 -4,4"/>
<!-- a -->
<g id="node1" class="node">
<title>a</title>
<ellipse fill="#000000" stroke="#000000" cx="14.2" cy="-22.2" rx="7.2" ry="7.2"/>
<text text-anchor="middle" x="3.5" y="-3.8" font-family="Times,serif" font-size="14.00" fill="#000000">a</text>
</g>
<!-- b -->
<g id="node2" class="node">
<title>b</title>
<ellipse fill="#000000" stroke="#000000" cx="136.6" cy="-161.2" rx="7.2" ry="7.2"/>
<text text-anchor="middle" x="125.9" y="-142.8" font-family="Times,serif" font-size="14.00" fill="#000000">b</text>
</g>
<!-- a&#45;&gt;b -->
<g id="edge1" class="edge">
<title>a&#45;&gt;b</title>
<path fill="none" stroke="#000000" d="M19.1498,-27.8211C37.0649,-48.1659 98.836,-118.3144 124.8764,-147.8864"/>
<polygon fill="#000000" stroke="#000000" points="122.4872,-150.4693 131.7227,-155.6612 127.7407,-145.8431 122.4872,-150.4693"/>
</g>
<!-- c -->
<g id="node3" class="node">
<title>c</title>
<ellipse fill="#000000" stroke="#000000" cx="259" cy="-22.2" rx="7.2" ry="7.2"/>
<text text-anchor="middle" x="248.3" y="-3.8" font-family="Times,serif" font-size="14.00" fill="#000000">c</text>
</g>
<!-- a&#45;&gt;c -->
<g id="edge2" class="edge">
<title>a&#45;&gt;c</title>
<path fill="none" stroke="#000000" d="M21.5264,-22.2C54.8161,-22.2 192.3151,-22.2 241.4483,-22.2"/>
<polygon fill="#000000" stroke="#000000" points="241.4622,-25.7001 251.4622,-22.2 241.4621,-18.7001 241.4622,-25.7001"/>
</g>
<!-- b&#45;&gt;c -->
<g id="edge3" class="edge">
<title>b&#45;&gt;c</title>
<path fill="none" stroke="#000000" d="M141.5498,-155.5789C159.4649,-135.2341 221.236,-65.0856 247.2764,-35.5136"/>
<polygon fill="#000000" stroke="#000000" points="250.1407,-37.5569 254.1227,-27.7388 244.8872,-32.9307 250.1407,-37.5569"/>
</g>
</g>
</svg>
