<?xml version="1.0" encoding="UTF-8" standalone="no"?>
<!DOCTYPE svg PUBLIC "-//W3C//DTD SVG 1.1//EN"
 "http://www.w3.org/Graphics/SVG/1.1/DTD/svg11.dtd">
<!-- Generated by graphviz version 2.40.1 (20161225.0304)
 -->
<!-- Title: G Pages: 1 -->
<svg width="310pt" height="213pt"
 viewBox="0.00 0.00 310.00 213.00" xmlns="http://www.w3.org/2000/svg" xmlns:xlink="http://www.w3.org/1999/xlink">
<g id="graph0" class="graph" transform="scale(1 1) rotate(0) translate(4 209)">
<title>G</title>
<polygon fill="#ffffff" stroke="transparent" points="-4,4 -4,-209 306,-209 306,4 -4,4"/>
<g id="clust1" class="cluster">
<title>cluster_0</title>
<path fill="none" stroke="#000000" d="M20,-8C20,-8 86,-8 86,-8 92,-8 98,-14 98,-20 98,-20 98,-147 98,-147 98,-153 92,-159 86,-159 86,-159 20,-159 20,-159 14,-159 8,-153 8,-147 8,-147 8,-20 8,-20 8,-14 14,-8 20,-8"/>
<text text-anchor="middle" x="53" y="-143.8" font-family="Times,serif" font-size="14.00" fill="#000000">Zero</text>
</g>
<g id="clust2" class="cluster">
<title>cluster_2</title>
<path fill="none" stroke="#000000" d="M118,-8C118,-8 184,-8 184,-8 190,-8 196,-14 196,-20 196,-20 196,-147 196,-147 196,-153 190,-159 184,-159 184,-159 118,-159 118,-159 112,-159 106,-153 106,-147 106,-147 106,-20 106,-20 106,-14 112,-8 118,-8"/>
<text text-anchor="middle" x="151" y="-143.8" font-family="Times,serif" font-size="14.00" fill="#000000">Two</text>
</g>
<g id="clust3" class="cluster">
<title>cluster_1</title>
<path fill="none" stroke="#000000" d="M216,-8C216,-8 282,-8 282,-8 288,-8 294,-14 294,-20 294,-20 294,-147 294,-147 294,-153 288,-159 282,-159 282,-159 216,-159 216,-159 210,-159 204,-153 204,-147 204,-147 204,-20 204,-20 204,-14 210,-8 216,-8"/>
<text text-anchor="middle" x="249" y="-143.8" font-family="Times,serif" font-size="14.00" fill="#000000">One</text>
</g>
<!-- Node_0_0 -->
<g id="node1" class="node">
<title>Node_0_0</title>
<path fill="none" stroke="#000000" d="M28.5,-90.5C28.5,-90.5 77.5,-90.5 77.5,-90.5 83.5,-90.5 89.5,-96.5 89.5,-102.5 89.5,-102.5 89.5,-115.5 89.5,-115.5 89.5,-121.5 83.5,-127.5 77.5,-127.5 77.5,-127.5 28.5,-127.5 28.5,-127.5 22.5,-127.5 16.5,-121.5 16.5,-115.5 16.5,-115.5 16.5,-102.5 16.5,-102.5 16.5,-96.5 22.5,-90.5 28.5,-90.5"/>
<text text-anchor="middle" x="53" y="-105.3" font-family="Times,serif" font-size="14.00" fill="#000000">Node_0_0</text>
</g>
<!-- Node_0_1 -->
<g id="node2" class="node">
<title>Node_0_1</title>
<path fill="none" stroke="#000000" d="M28.5,-16.5C28.5,-16.5 77.5,-16.5 77.5,-16.5 83.5,-16.5 89.5,-22.5 89.5,-28.5 89.5,-28.5 89.5,-41.5 89.5,-41.5 89.5,-47.5 83.5,-53.5 77.5,-53.5 77.5,-53.5 28.5,-53.5 28.5,-53.5 22.5,-53.5 16.5,-47.5 16.5,-41.5 16.5,-41.5 16.5,-28.5 16.5,-28.5 16.5,-22.5 22.5,-16.5 28.5,-16.5"/>
<text text-anchor="middle" x="53" y="-31.3" font-family="Times,serif" font-size="14.00" fill="#000000">Node_0_1</text>
</g>
<!-- Node_0_0&#45;&gt;Node_0_1 -->
<g id="edge1" class="edge">
<title>Node_0_0&#45;&gt;Node_0_1</title>
<path fill="none" stroke="#000000" d="M53,-90.3267C53,-82.2639 53,-72.6477 53,-63.7115"/>
<polygon fill="#000000" stroke="#000000" points="56.5001,-63.6673 53,-53.6674 49.5001,-63.6674 56.5001,-63.6673"/>
</g>
<!-- Node_2_0 -->
<g id="node3" class="node">
<title>Node_2_0</title>
<path fill="none" stroke="#000000" d="M126.5,-90.5C126.5,-90.5 175.5,-90.5 175.5,-90.5 181.5,-90.5 187.5,-96.5 187.5,-102.5 187.5,-102.5 187.5,-115.5 187.5,-115.5 187.5,-121.5 181.5,-127.5 175.5,-127.5 175.5,-127.5 126.5,-127.5 126.5,-127.5 120.5,-127.5 114.5,-121.5 114.5,-115.5 114.5,-115.5 114.5,-102.5 114.5,-102.5 114.5,-96.5 120.5,-90.5 126.5,-90.5"/>
<text text-anchor="middle" x="151" y="-105.3" font-family="Times,serif" font-size="14.00" fill="#000000">Node_2_0</text>
</g>
<!-- Node_2_1 -->
<g id="node4" class="node">
<title>Node_2_1</title>
<path fill="none" stroke="#000000" d="M126.5,-16.5C126.5,-16.5 175.5,-16.5 175.5,-16.5 181.5,-16.5 187.5,-22.5 187.5,-28.5 187.5,-28.5 187.5,-41.5 187.5,-41.5 187.5,-47.5 181.5,-53.5 175.5,-53.5 175.5,-53.5 126.5,-53.5 126.5,-53.5 120.5,-53.5 114.5,-47.5 114.5,-41.5 114.5,-41.5 114.5,-28.5 114.5,-28.5 114.5,-22.5 120.5,-16.5 126.5,-16.5"/>
<text text-anchor="middle" x="151" y="-31.3" font-family="Times,serif" font-size="14.00" fill="#000000">Node_2_1</text>
</g>
<!-- Node_2_0&#45;&gt;Node_2_1 -->
<g id="edge2" class="edge">
<title>Node_2_0&#45;&gt;Node_2_1</title>
<path fill="none" stroke="#000000" d="M151,-90.3267C151,-82.2639 151,-72.6477 151,-63.7115"/>
<polygon fill="#000000" stroke="#000000" points="154.5001,-63.6673 151,-53.6674 147.5001,-63.6674 154.5001,-63.6673"/>
</g>
<!-- Node_1_0 -->
<g id="node5" class="node">
<title>Node_1_0</title>
<path fill="none" stroke="#000000" d="M224.5,-90.5C224.5,-90.5 273.5,-90.5 273.5,-90.5 279.5,-90.5 285.5,-96.5 285.5,-102.5 285.5,-102.5 285.5,-115.5 285.5,-115.5 285.5,-121.5 279.5,-127.5 273.5,-127.5 273.5,-127.5 224.5,-127.5 224.5,-127.5 218.5,-127.5 212.5,-121.5 212.5,-115.5 212.5,-115.5 212.5,-102.5 212.5,-102.5 212.5,-96.5 218.5,-90.5 224.5,-90.5"/>
<text text-anchor="middle" x="249" y="-105.3" font-family="Times,serif" font-size="14.00" fill="#000000">Node_1_0</text>
</g>
<!-- Node_1_1 -->
<g id="node6" class="node">
<title>Node_1_1</title>
<path fill="none" stroke="#000000" d="M224.5,-16.5C224.5,-16.5 273.5,-16.5 273.5,-16.5 279.5,-16.5 285.5,-22.5 285.5,-28.5 285.5,-28.5 285.5,-41.5 285.5,-41.5 285.5,-47.5 279.5,-53.5 273.5,-53.5 273.5,-53.5 224.5,-53.5 224.5,-53.5 218.5,-53.5 212.5,-47.5 212.5,-41.5 212.5,-41.5 212.5,-28.5 212.5,-28.5 212.5,-22.5 218.5,-16.5 224.5,-16.5"/>
<text text-anchor="middle" x="249" y="-31.3" font-family="Times,serif" font-size="14.00" fill="#000000">Node_1_1</text>
</g>
<!-- Node_1_0&#45;&gt;Node_1_1 -->
<g id="edge3" class="edge">
<title>Node_1_0&#45;&gt;Node_1_1</title>
<path fill="none" stroke="#000000" d="M249,-90.3267C249,-82.2639 249,-72.6477 249,-63.7115"/>
<polygon fill="#000000" stroke="#000000" points="252.5001,-63.6673 249,-53.6674 245.5001,-63.6674 252.5001,-63.6673"/>
</g>
<!-- NodeA -->
<g id="node7" class="node">
<title>NodeA</title>
<path fill="none" stroke="#000000" d="M135,-167.5C135,-167.5 167,-167.5 167,-167.5 173,-167.5 179,-173.5 179,-179.5 179,-179.5 179,-192.5 179,-192.5 179,-198.5 173,-204.5 167,-204.5 167,-204.5 135,-204.5 135,-204.5 129,-204.5 123,-198.5 123,-192.5 123,-192.5 123,-179.5 123,-179.5 123,-173.5 129,-167.5 135,-167.5"/>
<text text-anchor="middle" x="151" y="-182.3" font-family="Times,serif" font-size="14.00" fill="#000000">NodeA</text>
</g>
<!-- NodeA&#45;&gt;Node_0_0 -->
<g id="edge4" class="edge">
<title>NodeA&#45;&gt;Node_0_0</title>
<path fill="none" stroke="#000000" d="M122.9079,-172.3545C117.819,-169.5327 112.5609,-166.3872 106.1356,-161.8617"/>
<polygon fill="#000000" stroke="#000000" points="108.1205,-158.9766 97.9969,-155.8519 103.9623,-164.6077 108.1205,-158.9766"/>
</g>
<!-- NodeA&#45;&gt;Node_2_0 -->
<g id="edge5" class="edge">
<title>NodeA&#45;&gt;Node_2_0</title>
<path fill="none" stroke="#000000" d="M151,-167.3604C151,-167.2779 151,-167.1952 151,-167.1123"/>
<polygon fill="#000000" stroke="#000000" points="154.5001,-168.9958 151,-158.9959 147.5001,-168.9959 154.5001,-168.9958"/>
</g>
<!-- NodeA&#45;&gt;Node_1_0 -->
<g id="edge6" class="edge">
<title>NodeA&#45;&gt;Node_1_0</title>
<path fill="none" stroke="#000000" d="M179.0921,-172.3545C184.181,-169.5327 189.4391,-166.3872 195.8644,-161.8617"/>
<polygon fill="#000000" stroke="#000000" points="198.0377,-164.6077 204.0031,-155.8519 193.8795,-158.9766 198.0377,-164.6077"/>
</g>
</g>
</svg>
