<?xml version="1.0" encoding="UTF-8" standalone="no"?>
<!DOCTYPE svg PUBLIC "-//W3C//DTD SVG 1.1//EN"
 "http://www.w3.org/Graphics/SVG/1.1/DTD/svg11.dtd">
<!-- Generated by graphviz version 2.40.1 (20161225.0304)
 -->
<!-- Title: g Pages: 1 -->
<svg width="366pt" height="216pt"
 viewBox="0.00 0.00 366.00 216.00" xmlns="http://www.w3.org/2000/svg" xmlns:xlink="http://www.w3.org/1999/xlink">
<g id="graph0" class="graph" transform="scale(1 1) rotate(0) translate(4 212)">
<title>g</title>
<polygon fill="#ffffff" stroke="transparent" points="-4,4 -4,-212 362,-212 362,4 -4,4"/>
<!-- node0 -->
<g id="node1" class="node">
<title>node0</title>
<polygon fill="none" stroke="#000000" points="166,-183.5 166,-207.5 232,-207.5 232,-183.5 166,-183.5"/>
<text text-anchor="middle" x="176" y="-191.8" font-family="Times,serif" font-size="14.00" fill="#000000"> </text>
<polyline fill="none" stroke="#000000" points="186,-183.5 186,-207.5 "/>
<text text-anchor="middle" x="199" y="-191.8" font-family="Times,serif" font-size="14.00" fill="#000000">G</text>
<polyline fill="none" stroke="#000000" points="212,-183.5 212,-207.5 "/>
<text text-anchor="middle" x="222" y="-191.8" font-family="Times,serif" font-size="14.00" fill="#000000"> </text>
</g>
<!-- node1 -->
<g id="node2" class="node">
<title>node1</title>
<polygon fill="none" stroke="#000000" points="102.5,-122.5 102.5,-146.5 167.5,-146.5 167.5,-122.5 102.5,-122.5"/>
<text text-anchor="middle" x="112.5" y="-130.8" font-family="Times,serif" font-size="14.00" fill="#000000"> </text>
<polyline fill="none" stroke="#000000" points="122.5,-122.5 122.5,-146.5 "/>
<text text-anchor="middle" x="135" y="-130.8" font-family="Times,serif" font-size="14.00" fill="#000000">E</text>
<polyline fill="none" stroke="#000000" points="147.5,-122.5 147.5,-146.5 "/>
<text text-anchor="middle" x="157.5" y="-130.8" font-family="Times,serif" font-size="14.00" fill="#000000"> </text>
</g>
<!-- node0&#45;&gt;node1 -->
<g id="edge1" class="edge">
<title>node0:f0&#45;&gt;node1:f1</title>
<path fill="none" stroke="#000000" d="M176,-183.5C176,-163.1735 147.8826,-167.9714 138.2172,-156.2814"/>
<polygon fill="#000000" stroke="#000000" points="141.4493,-154.9058 135,-146.5 134.7997,-157.0929 141.4493,-154.9058"/>
</g>
<!-- node4 -->
<g id="node3" class="node">
<title>node4</title>
<polygon fill="none" stroke="#000000" points="231,-122.5 231,-146.5 297,-146.5 297,-122.5 231,-122.5"/>
<text text-anchor="middle" x="241" y="-130.8" font-family="Times,serif" font-size="14.00" fill="#000000"> </text>
<polyline fill="none" stroke="#000000" points="251,-122.5 251,-146.5 "/>
<text text-anchor="middle" x="264" y="-130.8" font-family="Times,serif" font-size="14.00" fill="#000000">R</text>
<polyline fill="none" stroke="#000000" points="277,-122.5 277,-146.5 "/>
<text text-anchor="middle" x="287" y="-130.8" font-family="Times,serif" font-size="14.00" fill="#000000"> </text>
</g>
<!-- node0&#45;&gt;node4 -->
<g id="edge2" class="edge">
<title>node0:f2&#45;&gt;node4:f1</title>
<path fill="none" stroke="#000000" d="M222,-183.5C222,-162.7044 251.3492,-168.205 260.9795,-156.0378"/>
<polygon fill="#000000" stroke="#000000" points="264.3175,-157.0901 264,-146.5 257.6441,-154.9766 264.3175,-157.0901"/>
</g>
<!-- node2 -->
<g id="node4" class="node">
<title>node2</title>
<polygon fill="none" stroke="#000000" points="42,-61.5 42,-85.5 108,-85.5 108,-61.5 42,-61.5"/>
<text text-anchor="middle" x="52" y="-69.8" font-family="Times,serif" font-size="14.00" fill="#000000"> </text>
<polyline fill="none" stroke="#000000" points="62,-61.5 62,-85.5 "/>
<text text-anchor="middle" x="75" y="-69.8" font-family="Times,serif" font-size="14.00" fill="#000000">B</text>
<polyline fill="none" stroke="#000000" points="88,-61.5 88,-85.5 "/>
<text text-anchor="middle" x="98" y="-69.8" font-family="Times,serif" font-size="14.00" fill="#000000"> </text>
</g>
<!-- node1&#45;&gt;node2 -->
<g id="edge3" class="edge">
<title>node1:f0&#45;&gt;node2:f1</title>
<path fill="none" stroke="#000000" d="M112,-122.5C112,-103.4228 87.1022,-106.3956 78.1546,-95.2426"/>
<polygon fill="#000000" stroke="#000000" points="81.4103,-93.9355 75,-85.5 74.7507,-96.0919 81.4103,-93.9355"/>
</g>
<!-- node3 -->
<g id="node5" class="node">
<title>node3</title>
<polygon fill="none" stroke="#000000" points="126,-61.5 126,-85.5 190,-85.5 190,-61.5 126,-61.5"/>
<text text-anchor="middle" x="136" y="-69.8" font-family="Times,serif" font-size="14.00" fill="#000000"> </text>
<polyline fill="none" stroke="#000000" points="146,-61.5 146,-85.5 "/>
<text text-anchor="middle" x="158" y="-69.8" font-family="Times,serif" font-size="14.00" fill="#000000">F</text>
<polyline fill="none" stroke="#000000" points="170,-61.5 170,-85.5 "/>
<text text-anchor="middle" x="180" y="-69.8" font-family="Times,serif" font-size="14.00" fill="#000000"> </text>
</g>
<!-- node1&#45;&gt;node3 -->
<g id="edge4" class="edge">
<title>node1:f2&#45;&gt;node3:f1</title>
<path fill="none" stroke="#000000" d="M158,-122.5C158,-110.0382 158,-104.6592 158,-95.6281"/>
<polygon fill="#000000" stroke="#000000" points="161.5001,-95.5 158,-85.5 154.5001,-95.5 161.5001,-95.5"/>
</g>
<!-- node5 -->
<g id="node6" class="node">
<title>node5</title>
<polygon fill="none" stroke="#000000" points="208,-61.5 208,-85.5 274,-85.5 274,-61.5 208,-61.5"/>
<text text-anchor="middle" x="218" y="-69.8" font-family="Times,serif" font-size="14.00" fill="#000000"> </text>
<polyline fill="none" stroke="#000000" points="228,-61.5 228,-85.5 "/>
<text text-anchor="middle" x="241" y="-69.8" font-family="Times,serif" font-size="14.00" fill="#000000">H</text>
<polyline fill="none" stroke="#000000" points="254,-61.5 254,-85.5 "/>
<text text-anchor="middle" x="264" y="-69.8" font-family="Times,serif" font-size="14.00" fill="#000000"> </text>
</g>
<!-- node4&#45;&gt;node5 -->
<g id="edge5" class="edge">
<title>node4:f0&#45;&gt;node5:f1</title>
<path fill="none" stroke="#000000" d="M241,-122.5C241,-110.0382 241,-104.6592 241,-95.6281"/>
<polygon fill="#000000" stroke="#000000" points="244.5001,-95.5 241,-85.5 237.5001,-95.5 244.5001,-95.5"/>
</g>
<!-- node6 -->
<g id="node7" class="node">
<title>node6</title>
<polygon fill="none" stroke="#000000" points="292,-61.5 292,-85.5 358,-85.5 358,-61.5 292,-61.5"/>
<text text-anchor="middle" x="302" y="-69.8" font-family="Times,serif" font-size="14.00" fill="#000000"> </text>
<polyline fill="none" stroke="#000000" points="312,-61.5 312,-85.5 "/>
<text text-anchor="middle" x="325" y="-69.8" font-family="Times,serif" font-size="14.00" fill="#000000">Y</text>
<polyline fill="none" stroke="#000000" points="338,-61.5 338,-85.5 "/>
<text text-anchor="middle" x="348" y="-69.8" font-family="Times,serif" font-size="14.00" fill="#000000"> </text>
</g>
<!-- node4&#45;&gt;node6 -->
<g id="edge6" class="edge">
<title>node4:f2&#45;&gt;node6:f1</title>
<path fill="none" stroke="#000000" d="M287,-122.5C287,-103.1633 312.5707,-106.5152 321.7601,-95.3323"/>
<polygon fill="#000000" stroke="#000000" points="325.1945,-96.0931 325,-85.5 318.5461,-93.9023 325.1945,-96.0931"/>
</g>
<!-- node7 -->
<g id="node8" class="node">
<title>node7</title>
<polygon fill="none" stroke="#000000" points="0,-.5 0,-24.5 66,-24.5 66,-.5 0,-.5"/>
<text text-anchor="middle" x="10" y="-8.8" font-family="Times,serif" font-size="14.00" fill="#000000"> </text>
<polyline fill="none" stroke="#000000" points="20,-.5 20,-24.5 "/>
<text text-anchor="middle" x="33" y="-8.8" font-family="Times,serif" font-size="14.00" fill="#000000">A</text>
<polyline fill="none" stroke="#000000" points="46,-.5 46,-24.5 "/>
<text text-anchor="middle" x="56" y="-8.8" font-family="Times,serif" font-size="14.00" fill="#000000"> </text>
</g>
<!-- node2&#45;&gt;node7 -->
<g id="edge7" class="edge">
<title>node2:f0&#45;&gt;node7:f1</title>
<path fill="none" stroke="#000000" d="M52,-61.5C52,-47.0579 40.4033,-43.8815 35.3298,-34.3681"/>
<polygon fill="#000000" stroke="#000000" points="38.7042,-33.4282 33,-24.5 31.8915,-35.0367 38.7042,-33.4282"/>
</g>
<!-- node8 -->
<g id="node9" class="node">
<title>node8</title>
<polygon fill="none" stroke="#000000" points="84,-.5 84,-24.5 150,-24.5 150,-.5 84,-.5"/>
<text text-anchor="middle" x="94" y="-8.8" font-family="Times,serif" font-size="14.00" fill="#000000"> </text>
<polyline fill="none" stroke="#000000" points="104,-.5 104,-24.5 "/>
<text text-anchor="middle" x="117" y="-8.8" font-family="Times,serif" font-size="14.00" fill="#000000">C</text>
<polyline fill="none" stroke="#000000" points="130,-.5 130,-24.5 "/>
<text text-anchor="middle" x="140" y="-8.8" font-family="Times,serif" font-size="14.00" fill="#000000"> </text>
</g>
<!-- node2&#45;&gt;node8 -->
<g id="edge8" class="edge">
<title>node2:f2&#45;&gt;node8:f1</title>
<path fill="none" stroke="#000000" d="M98,-61.5C98,-47.0579 109.5967,-43.8815 114.6702,-34.3681"/>
<polygon fill="#000000" stroke="#000000" points="118.1085,-35.0367 117,-24.5 111.2958,-33.4282 118.1085,-35.0367"/>
</g>
</g>
</svg>
