<?xml version="1.0" encoding="UTF-8" standalone="no"?>
<!DOCTYPE svg PUBLIC "-//W3C//DTD SVG 1.1//EN"
 "http://www.w3.org/Graphics/SVG/1.1/DTD/svg11.dtd">
<!-- Generated by graphviz version 2.40.1 (20161225.0304)
 -->
<!-- Title: G Pages: 1 -->
<svg width="257pt" height="288pt"
 viewBox="0.00 0.00 257.06 288.00" xmlns="http://www.w3.org/2000/svg" xmlns:xlink="http://www.w3.org/1999/xlink">
<g id="graph0" class="graph" transform="scale(.9114 .9114) rotate(0) translate(4 312)">
<title>G</title>
<polygon fill="#ffffff" stroke="transparent" points="-4,4 -4,-312 278.0473,-312 278.0473,4 -4,4"/>
<!-- main -->
<g id="node1" class="node">
<title>main</title>
<polygon fill="none" stroke="#000000" points="138.5473,-308 84.5473,-308 84.5473,-272 138.5473,-272 138.5473,-308"/>
<text text-anchor="middle" x="111.5473" y="-286.3" font-family="Times,serif" font-size="14.00" fill="#000000">main</text>
</g>
<!-- parse -->
<g id="node2" class="node">
<title>parse</title>
<ellipse fill="none" stroke="#000000" cx="111.5473" cy="-217" rx="29.4969" ry="18"/>
<text text-anchor="middle" x="111.5473" y="-213.3" font-family="Times,serif" font-size="14.00" fill="#000000">parse</text>
</g>
<!-- main&#45;&gt;parse -->
<g id="edge1" class="edge">
<title>main&#45;&gt;parse</title>
<path fill="none" stroke="#000000" d="M111.5473,-271.9551C111.5473,-263.8828 111.5473,-254.1764 111.5473,-245.1817"/>
<polygon fill="#000000" stroke="#000000" points="115.0474,-245.0903 111.5473,-235.0904 108.0474,-245.0904 115.0474,-245.0903"/>
</g>
<!-- init -->
<g id="node3" class="node">
<title>init</title>
<ellipse fill="none" stroke="#000000" cx="179.5473" cy="-163" rx="27" ry="18"/>
<text text-anchor="middle" x="179.5473" y="-159.3" font-family="Times,serif" font-size="14.00" fill="#000000">init</text>
</g>
<!-- main&#45;&gt;init -->
<g id="edge2" class="edge">
<title>main&#45;&gt;init</title>
<path fill="none" stroke="#000000" stroke-dasharray="1,5" d="M125.5718,-271.7853C133.2254,-261.3597 142.5403,-247.8355 149.5473,-235 157.3792,-220.6533 164.495,-203.8292 169.8288,-190.0533"/>
<polygon fill="#000000" stroke="#000000" points="173.125,-191.2317 173.3824,-180.64 166.5761,-188.7593 173.125,-191.2317"/>
</g>
<!-- cleanup -->
<g id="node4" class="node">
<title>cleanup</title>
<ellipse fill="none" stroke="#000000" cx="235.5473" cy="-217" rx="38.5" ry="18"/>
<text text-anchor="middle" x="235.5473" y="-213.3" font-family="Times,serif" font-size="14.00" fill="#000000">cleanup</text>
</g>
<!-- main&#45;&gt;cleanup -->
<g id="edge3" class="edge">
<title>main&#45;&gt;cleanup</title>
<path fill="none" stroke="#000000" d="M138.661,-277.3618C152.102,-270.8194 168.4358,-262.4466 182.5473,-254 190.506,-249.2362 198.8506,-243.6914 206.5021,-238.3666"/>
<polygon fill="#000000" stroke="#000000" points="208.9633,-240.9125 215.1014,-232.2768 204.9177,-235.1999 208.9633,-240.9125"/>
</g>
<!-- printf -->
<g id="node5" class="node">
<title>printf</title>
<ellipse fill="none" stroke="#000000" cx="30.5473" cy="-27" rx="30.5947" ry="18"/>
<text text-anchor="middle" x="30.5473" y="-23.3" font-family="Times,serif" font-size="14.00" fill="#000000">printf</text>
</g>
<!-- main&#45;&gt;printf -->
<g id="edge4" class="edge">
<title>main&#45;&gt;printf</title>
<path fill="none" stroke="#ff0000" stroke-width="2" d="M97.4037,-271.8494C89.7129,-261.4439 80.4004,-247.9183 73.5473,-235 42.3761,-176.2413 33.7835,-97.0192 31.4271,-55.3437"/>
<polygon fill="#ff0000" stroke="#ff0000" stroke-width="2" points="34.9113,-54.9316 30.9331,-45.112 27.9195,-55.2692 34.9113,-54.9316"/>
<text text-anchor="middle" x="79.0473" y="-159.3" font-family="Times,serif" font-size="14.00" fill="#000000">100 times</text>
</g>
<!-- execute -->
<g id="node6" class="node">
<title>execute</title>
<ellipse fill="none" stroke="#000000" cx="111.5473" cy="-109" rx="37.8943" ry="18"/>
<text text-anchor="middle" x="111.5473" y="-105.3" font-family="Times,serif" font-size="14.00" fill="#000000">execute</text>
</g>
<!-- parse&#45;&gt;execute -->
<g id="edge5" class="edge">
<title>parse&#45;&gt;execute</title>
<path fill="none" stroke="#000000" d="M111.5473,-198.6793C111.5473,-181.821 111.5473,-156.5651 111.5473,-137.147"/>
<polygon fill="#000000" stroke="#000000" points="115.0474,-137.0501 111.5473,-127.0502 108.0474,-137.0502 115.0474,-137.0501"/>
</g>
<!-- make_string -->
<g id="node7" class="node">
<title>make_string</title>
<ellipse fill="none" stroke="#000000" cx="203.5473" cy="-27" rx="41.5409" ry="27"/>
<text text-anchor="middle" x="203.5473" y="-30.8" font-family="Times,serif" font-size="14.00" fill="#000000">make a</text>
<text text-anchor="middle" x="203.5473" y="-15.8" font-family="Times,serif" font-size="14.00" fill="#000000">字符串</text>
</g>
<!-- init&#45;&gt;make_string -->
<g id="edge6" class="edge">
<title>init&#45;&gt;make_string</title>
<path fill="none" stroke="#000000" d="M182.7343,-144.9403C186.359,-124.4006 192.3744,-90.3129 197.0086,-64.0525"/>
<polygon fill="#000000" stroke="#000000" points="200.4811,-64.5147 198.7723,-54.0585 193.5876,-63.2981 200.4811,-64.5147"/>
</g>
<!-- execute&#45;&gt;printf -->
<g id="edge7" class="edge">
<title>execute&#45;&gt;printf</title>
<path fill="none" stroke="#000000" d="M95.1557,-92.4061C83.0644,-80.1654 66.4654,-63.3616 53.1201,-49.8515"/>
<polygon fill="#000000" stroke="#000000" points="55.6076,-47.3893 46.09,-42.7346 50.6276,-52.3086 55.6076,-47.3893"/>
</g>
<!-- execute&#45;&gt;make_string -->
<g id="edge8" class="edge">
<title>execute&#45;&gt;make_string</title>
<path fill="none" stroke="#000000" d="M129.7235,-92.7994C141.5649,-82.2452 157.3465,-68.179 171.2781,-55.7616"/>
<polygon fill="#000000" stroke="#000000" points="173.6545,-58.332 178.7909,-49.0655 168.9969,-53.1064 173.6545,-58.332"/>
</g>
<!-- compare -->
<g id="node8" class="node">
<title>compare</title>
<polygon fill="#c1b2ff" stroke="#c1b2ff" points="143.5473,-45 79.5473,-45 79.5473,-9 143.5473,-9 143.5473,-45"/>
<text text-anchor="middle" x="111.5473" y="-23.3" font-family="Times,serif" font-size="14.00" fill="#000000">compare</text>
</g>
<!-- execute&#45;&gt;compare -->
<g id="edge9" class="edge">
<title>execute&#45;&gt;compare</title>
<path fill="none" stroke="#ff0000" d="M111.5473,-90.8015C111.5473,-80.3976 111.5473,-67.1215 111.5473,-55.3768"/>
<polygon fill="#ff0000" stroke="#ff0000" points="115.0474,-55.1476 111.5473,-45.1476 108.0474,-55.1476 115.0474,-55.1476"/>
</g>
</g>
</svg>
