<?xml version="1.0" encoding="UTF-8" standalone="no"?>
<!DOCTYPE svg PUBLIC "-//W3C//DTD SVG 1.1//EN"
 "http://www.w3.org/Graphics/SVG/1.1/DTD/svg11.dtd">
<!-- Generated by graphviz version 2.40.1 (20161225.0304)
 -->
<!-- Title: G2 Pages: 1 -->
<svg width="134pt" height="212pt"
 viewBox="0.00 0.00 134.00 211.50" xmlns="http://www.w3.org/2000/svg" xmlns:xlink="http://www.w3.org/1999/xlink">
<g id="graph0" class="graph" transform="scale(1 1) rotate(0) translate(4 207.5)">
<title>G2</title>
<polygon fill="#ffffff" stroke="transparent" points="-4,4 -4,-207.5 130,-207.5 130,4 -4,4"/>
<!-- User -->
<g id="node1" class="node">
<title>User</title>
<polygon fill="none" stroke="#000000" points="54,-203.5 0,-203.5 0,-167.5 54,-167.5 54,-203.5"/>
<text text-anchor="middle" x="27" y="-181.8" font-family="Times,serif" font-size="14.00" fill="#000000">User</text>
</g>
<!-- Triple -->
<g id="node3" class="node">
<title>Triple</title>
<polygon fill="#d3d3d3" stroke="#000000" points="63,-130.5 17,-112.5 63,-94.5 109,-112.5 63,-130.5"/>
<text text-anchor="middle" x="63" y="-108.8" font-family="Times,serif" font-size="14.00" fill="#000000">Triple</text>
</g>
<!-- User&#45;&#45;Triple -->
<g id="edge1" class="edge">
<title>User&#45;&#45;Triple</title>
<path fill="none" stroke="#000000" d="M35.8989,-167.4551C41.8955,-155.2953 49.7209,-139.4271 55.4203,-127.8699"/>
<text text-anchor="middle" x="37.3611" y="-141.4577" font-family="Times,serif" font-size="14.00" fill="#000000">1</text>
</g>
<!-- Object -->
<g id="node2" class="node">
<title>Object</title>
<polygon fill="none" stroke="#000000" points="126,-203.5 72,-203.5 72,-167.5 126,-167.5 126,-203.5"/>
<text text-anchor="middle" x="99" y="-181.8" font-family="Times,serif" font-size="14.00" fill="#000000">Object</text>
</g>
<!-- Object&#45;&#45;Triple -->
<g id="edge2" class="edge">
<title>Object&#45;&#45;Triple</title>
<path fill="none" stroke="#000000" d="M90.1011,-167.4551C84.1045,-155.2953 76.2791,-139.4271 70.5797,-127.8699"/>
<text text-anchor="middle" x="81.4152" y="-134.5426" font-family="Times,serif" font-size="14.00" fill="#000000">1</text>
</g>
<!-- Tag -->
<g id="node4" class="node">
<title>Tag</title>
<polygon fill="none" stroke="#000000" points="90,-43.5 36,-43.5 36,-7.5 90,-7.5 90,-43.5"/>
<text text-anchor="middle" x="63" y="-21.8" font-family="Times,serif" font-size="14.00" fill="#000000">Tag</text>
</g>
<!-- Triple&#45;&#45;Tag -->
<g id="edge3" class="edge">
<title>Triple&#45;&#45;Tag</title>
<path fill="none" stroke="#000000" d="M63,-94.4735C63,-79.5422 63,-58.4283 63,-43.5034"/>
<text text-anchor="middle" x="66.5" y="-65.3" font-family="Times,serif" font-size="14.00" fill="#000000">n</text>
<text text-anchor="middle" x="59.5" y="-47.3034" font-family="Times,serif" font-size="14.00" fill="#000000">2</text>
</g>
</g>
</svg>
