<?xml version="1.0" encoding="UTF-8" standalone="no"?>
<!DOCTYPE svg PUBLIC "-//W3C//DTD SVG 1.1//EN"
 "http://www.w3.org/Graphics/SVG/1.1/DTD/svg11.dtd">
<!-- Generated by graphviz version 2.40.1 (20161225.0304)
 -->
<!-- Title: G Pages: 1 -->
<svg width="836pt" height="495pt"
 viewBox="0.00 0.00 836.00 494.50" xmlns="http://www.w3.org/2000/svg" xmlns:xlink="http://www.w3.org/1999/xlink">
<g id="graph0" class="graph" transform="scale(1 1) rotate(0) translate(4 490.5)">
<title>G</title>
<polygon fill="#ffffff" stroke="transparent" points="-4,4 -4,-490.5 832,-490.5 832,4 -4,4"/>
<!-- x0 -->
<g id="node1" class="node">
<title>x0</title>
<ellipse fill="#ffff00" stroke="#ffff00" cx="62.5" cy="-263.5" rx="19.5" ry="19.5"/>
<text text-anchor="start" x="55.5" y="-260.8" font-family="Times,serif" font-size="14.00" fill="#000000">x</text>
<text text-anchor="start" x="62.5" y="-260.8" font-family="Times,serif" baseline-shift="sub" font-size="14.00" fill="#000000">0</text>
</g>
<!-- x1 -->
<g id="node4" class="node">
<title>x1</title>
<ellipse fill="#7fff00" stroke="#7fff00" cx="62.5" cy="-206.5" rx="19.5" ry="19.5"/>
<text text-anchor="start" x="55.5" y="-203.8" font-family="Times,serif" font-size="14.00" fill="#000000">x</text>
<text text-anchor="start" x="62.5" y="-203.8" font-family="Times,serif" baseline-shift="sub" font-size="14.00" fill="#000000">1</text>
</g>
<!-- x0&#45;&gt;x1 -->
<!-- a12 -->
<g id="node7" class="node">
<title>a12</title>
<ellipse fill="#1e90ff" stroke="#1e90ff" cx="293" cy="-328.5" rx="28.5" ry="28.5"/>
<text text-anchor="start" x="279" y="-325.8" font-family="Times,serif" font-size="14.00" fill="#000000">a</text>
<text text-anchor="start" x="286" y="-325.8" font-family="Times,serif" baseline-shift="sub" font-size="14.00" fill="#000000">1</text>
<text text-anchor="start" x="293" y="-325.8" font-family="Times,serif" baseline-shift="super" font-size="14.00" fill="#000000">(2)</text>
</g>
<!-- x0&#45;&gt;a12 -->
<g id="edge17" class="edge">
<title>x0:e&#45;&gt;a12:w</title>
<path fill="none" stroke="#000000" d="M82.5,-263.5C82.5,-263.5 216.5424,-311.5042 254.2418,-325.0053"/>
<polygon fill="#000000" stroke="#000000" points="253.4054,-328.4234 264,-328.5 255.7656,-321.8333 253.4054,-328.4234"/>
</g>
<!-- a22 -->
<g id="node8" class="node">
<title>a22</title>
<ellipse fill="#1e90ff" stroke="#1e90ff" cx="293" cy="-253.5" rx="28.5" ry="28.5"/>
<text text-anchor="start" x="279" y="-250.8" font-family="Times,serif" font-size="14.00" fill="#000000">a</text>
<text text-anchor="start" x="286" y="-250.8" font-family="Times,serif" baseline-shift="sub" font-size="14.00" fill="#000000">2</text>
<text text-anchor="start" x="293" y="-250.8" font-family="Times,serif" baseline-shift="super" font-size="14.00" fill="#000000">(2)</text>
</g>
<!-- x0&#45;&gt;a22 -->
<g id="edge18" class="edge">
<title>x0:e&#45;&gt;a22:w</title>
<path fill="none" stroke="#000000" d="M82.5,-263.5C82.5,-263.5 215.9338,-256.1483 253.9832,-254.0519"/>
<polygon fill="#000000" stroke="#000000" points="254.2077,-257.5449 264,-253.5 253.8226,-250.5555 254.2077,-257.5449"/>
</g>
<!-- a32 -->
<g id="node9" class="node">
<title>a32</title>
<ellipse fill="#1e90ff" stroke="#1e90ff" cx="293" cy="-178.5" rx="28.5" ry="28.5"/>
<text text-anchor="start" x="279" y="-175.8" font-family="Times,serif" font-size="14.00" fill="#000000">a</text>
<text text-anchor="start" x="286" y="-175.8" font-family="Times,serif" baseline-shift="sub" font-size="14.00" fill="#000000">3</text>
<text text-anchor="start" x="293" y="-175.8" font-family="Times,serif" baseline-shift="super" font-size="14.00" fill="#000000">(2)</text>
</g>
<!-- x0&#45;&gt;a32 -->
<g id="edge19" class="edge">
<title>x0:e&#45;&gt;a32:w</title>
<path fill="none" stroke="#000000" d="M82.5,-263.5C82.5,-263.5 217.7637,-200.1534 254.7499,-182.832"/>
<polygon fill="#000000" stroke="#000000" points="256.4283,-185.9108 264,-178.5 253.4595,-179.5716 256.4283,-185.9108"/>
</g>
<!-- a42 -->
<g id="node10" class="node">
<title>a42</title>
<ellipse fill="#1e90ff" stroke="#1e90ff" cx="293" cy="-103.5" rx="28.5" ry="28.5"/>
<text text-anchor="start" x="279" y="-100.8" font-family="Times,serif" font-size="14.00" fill="#000000">a</text>
<text text-anchor="start" x="286" y="-100.8" font-family="Times,serif" baseline-shift="sub" font-size="14.00" fill="#000000">4</text>
<text text-anchor="start" x="293" y="-100.8" font-family="Times,serif" baseline-shift="super" font-size="14.00" fill="#000000">(2)</text>
</g>
<!-- x0&#45;&gt;a42 -->
<g id="edge20" class="edge">
<title>x0:e&#45;&gt;a42:w</title>
<path fill="none" stroke="#000000" d="M82.5,-263.5C82.5,-263.5 221.4609,-141 256.2012,-110.375"/>
<polygon fill="#000000" stroke="#000000" points="258.8131,-112.7383 264,-103.5 254.1841,-107.4873 258.8131,-112.7383"/>
</g>
<!-- a52 -->
<g id="node11" class="node">
<title>a52</title>
<ellipse fill="#1e90ff" stroke="#1e90ff" cx="293" cy="-28.5" rx="28.5" ry="28.5"/>
<text text-anchor="start" x="279" y="-25.8" font-family="Times,serif" font-size="14.00" fill="#000000">a</text>
<text text-anchor="start" x="286" y="-25.8" font-family="Times,serif" baseline-shift="sub" font-size="14.00" fill="#000000">5</text>
<text text-anchor="start" x="293" y="-25.8" font-family="Times,serif" baseline-shift="super" font-size="14.00" fill="#000000">(2)</text>
</g>
<!-- x0&#45;&gt;a52 -->
<g id="edge21" class="edge">
<title>x0:e&#45;&gt;a52:w</title>
<path fill="none" stroke="#000000" d="M82.5,-263.5C82.5,-263.5 225.8374,-77.9116 257.7524,-36.5892"/>
<polygon fill="#000000" stroke="#000000" points="260.6574,-38.5538 264,-28.5 255.1174,-34.2749 260.6574,-38.5538"/>
</g>
<!-- a02 -->
<g id="node2" class="node">
<title>a02</title>
<ellipse fill="#ffff00" stroke="#ffff00" cx="293" cy="-403.5" rx="28.5" ry="28.5"/>
<text text-anchor="start" x="279" y="-400.8" font-family="Times,serif" font-size="14.00" fill="#000000">a</text>
<text text-anchor="start" x="286" y="-400.8" font-family="Times,serif" baseline-shift="sub" font-size="14.00" fill="#000000">0</text>
<text text-anchor="start" x="293" y="-400.8" font-family="Times,serif" baseline-shift="super" font-size="14.00" fill="#000000">(2)</text>
</g>
<!-- a03 -->
<g id="node3" class="node">
<title>a03</title>
<ellipse fill="#ffff00" stroke="#ffff00" cx="528" cy="-403.5" rx="28.5" ry="28.5"/>
<text text-anchor="start" x="514" y="-400.8" font-family="Times,serif" font-size="14.00" fill="#000000">a</text>
<text text-anchor="start" x="521" y="-400.8" font-family="Times,serif" baseline-shift="sub" font-size="14.00" fill="#000000">0</text>
<text text-anchor="start" x="528" y="-400.8" font-family="Times,serif" baseline-shift="super" font-size="14.00" fill="#000000">(3)</text>
</g>
<!-- a02&#45;&gt;a03 -->
<!-- a02&#45;&gt;a12 -->
<!-- a13 -->
<g id="node12" class="node">
<title>a13</title>
<ellipse fill="#1e90ff" stroke="#1e90ff" cx="528" cy="-328.5" rx="28.5" ry="28.5"/>
<text text-anchor="start" x="514" y="-325.8" font-family="Times,serif" font-size="14.00" fill="#000000">a</text>
<text text-anchor="start" x="521" y="-325.8" font-family="Times,serif" baseline-shift="sub" font-size="14.00" fill="#000000">1</text>
<text text-anchor="start" x="528" y="-325.8" font-family="Times,serif" baseline-shift="super" font-size="14.00" fill="#000000">(3)</text>
</g>
<!-- a02&#45;&gt;a13 -->
<g id="edge23" class="edge">
<title>a02:e&#45;&gt;a13:w</title>
<path fill="none" stroke="#000000" d="M322,-403.5C322,-403.5 452.719,-348.1106 489.4837,-332.5323"/>
<polygon fill="#000000" stroke="#000000" points="491.158,-335.6242 499,-328.5 488.4269,-329.1789 491.158,-335.6242"/>
</g>
<!-- a23 -->
<g id="node13" class="node">
<title>a23</title>
<ellipse fill="#1e90ff" stroke="#1e90ff" cx="528" cy="-253.5" rx="28.5" ry="28.5"/>
<text text-anchor="start" x="514" y="-250.8" font-family="Times,serif" font-size="14.00" fill="#000000">a</text>
<text text-anchor="start" x="521" y="-250.8" font-family="Times,serif" baseline-shift="sub" font-size="14.00" fill="#000000">2</text>
<text text-anchor="start" x="528" y="-250.8" font-family="Times,serif" baseline-shift="super" font-size="14.00" fill="#000000">(3)</text>
</g>
<!-- a02&#45;&gt;a23 -->
<g id="edge24" class="edge">
<title>a02:e&#45;&gt;a23:w</title>
<path fill="none" stroke="#000000" d="M322,-403.5C322,-403.5 456.3084,-289.6794 490.9347,-260.335"/>
<polygon fill="#000000" stroke="#000000" points="493.6339,-262.6354 499,-253.5 489.1082,-257.2951 493.6339,-262.6354"/>
</g>
<!-- a33 -->
<g id="node14" class="node">
<title>a33</title>
<ellipse fill="#1e90ff" stroke="#1e90ff" cx="528" cy="-178.5" rx="28.5" ry="28.5"/>
<text text-anchor="start" x="514" y="-175.8" font-family="Times,serif" font-size="14.00" fill="#000000">a</text>
<text text-anchor="start" x="521" y="-175.8" font-family="Times,serif" baseline-shift="sub" font-size="14.00" fill="#000000">3</text>
<text text-anchor="start" x="528" y="-175.8" font-family="Times,serif" baseline-shift="super" font-size="14.00" fill="#000000">(3)</text>
</g>
<!-- a02&#45;&gt;a33 -->
<g id="edge25" class="edge">
<title>a02:e&#45;&gt;a33:w</title>
<path fill="none" stroke="#000000" d="M322,-403.5C322,-403.5 461.1698,-226.5892 492.7005,-186.5079"/>
<polygon fill="#000000" stroke="#000000" points="495.568,-188.5236 499,-178.5 490.0663,-184.1956 495.568,-188.5236"/>
</g>
<!-- a43 -->
<g id="node15" class="node">
<title>a43</title>
<ellipse fill="#1e90ff" stroke="#1e90ff" cx="528" cy="-103.5" rx="28.5" ry="28.5"/>
<text text-anchor="start" x="514" y="-100.8" font-family="Times,serif" font-size="14.00" fill="#000000">a</text>
<text text-anchor="start" x="521" y="-100.8" font-family="Times,serif" baseline-shift="sub" font-size="14.00" fill="#000000">4</text>
<text text-anchor="start" x="528" y="-100.8" font-family="Times,serif" baseline-shift="super" font-size="14.00" fill="#000000">(3)</text>
</g>
<!-- a02&#45;&gt;a43 -->
<g id="edge26" class="edge">
<title>a02:e&#45;&gt;a43:w</title>
<path fill="none" stroke="#000000" d="M322,-403.5C322,-403.5 464.8726,-161.343 493.8936,-112.1549"/>
<polygon fill="#000000" stroke="#000000" points="496.9329,-113.8912 499,-103.5 490.904,-110.3342 496.9329,-113.8912"/>
</g>
<!-- a53 -->
<g id="node16" class="node">
<title>a53</title>
<ellipse fill="#1e90ff" stroke="#1e90ff" cx="528" cy="-28.5" rx="28.5" ry="28.5"/>
<text text-anchor="start" x="514" y="-25.8" font-family="Times,serif" font-size="14.00" fill="#000000">a</text>
<text text-anchor="start" x="521" y="-25.8" font-family="Times,serif" baseline-shift="sub" font-size="14.00" fill="#000000">5</text>
<text text-anchor="start" x="528" y="-25.8" font-family="Times,serif" baseline-shift="super" font-size="14.00" fill="#000000">(3)</text>
</g>
<!-- a02&#45;&gt;a53 -->
<g id="edge27" class="edge">
<title>a02:e&#45;&gt;a53:w</title>
<path fill="none" stroke="#000000" d="M322,-403.5C322,-403.5 467.3682,-95.5166 494.6247,-37.7697"/>
<polygon fill="#000000" stroke="#000000" points="497.8967,-39.0372 499,-28.5 491.5664,-36.0493 497.8967,-39.0372"/>
</g>
<!-- a03&#45;&gt;a13 -->
<!-- O1 -->
<g id="node17" class="node">
<title>O1</title>
<ellipse fill="#ff7256" stroke="#ff7256" cx="762" cy="-328.5" rx="28.5" ry="28.5"/>
<text text-anchor="start" x="748" y="-325.8" font-family="Times,serif" font-size="14.00" fill="#000000">a</text>
<text text-anchor="start" x="755" y="-325.8" font-family="Times,serif" baseline-shift="sub" font-size="14.00" fill="#000000">1</text>
<text text-anchor="start" x="762" y="-325.8" font-family="Times,serif" baseline-shift="super" font-size="14.00" fill="#000000">(4)</text>
</g>
<!-- a03&#45;&gt;O1 -->
<g id="edge28" class="edge">
<title>a03:e&#45;&gt;O1:w</title>
<path fill="none" stroke="#000000" d="M557,-403.5C557,-403.5 686.9805,-348.1106 723.5375,-332.5323"/>
<polygon fill="#000000" stroke="#000000" points="725.1726,-335.6402 733,-328.5 722.4283,-329.2005 725.1726,-335.6402"/>
</g>
<!-- O2 -->
<g id="node18" class="node">
<title>O2</title>
<ellipse fill="#ff7256" stroke="#ff7256" cx="762" cy="-253.5" rx="28.5" ry="28.5"/>
<text text-anchor="start" x="748" y="-250.8" font-family="Times,serif" font-size="14.00" fill="#000000">a</text>
<text text-anchor="start" x="755" y="-250.8" font-family="Times,serif" baseline-shift="sub" font-size="14.00" fill="#000000">2</text>
<text text-anchor="start" x="762" y="-250.8" font-family="Times,serif" baseline-shift="super" font-size="14.00" fill="#000000">(4)</text>
</g>
<!-- a03&#45;&gt;O2 -->
<g id="edge29" class="edge">
<title>a03:e&#45;&gt;O2:w</title>
<path fill="none" stroke="#000000" d="M557,-403.5C557,-403.5 690.5496,-289.6794 724.9803,-260.335"/>
<polygon fill="#000000" stroke="#000000" points="727.6594,-262.6504 733,-253.5 723.1188,-257.3227 727.6594,-262.6504"/>
</g>
<!-- O3 -->
<g id="node19" class="node">
<title>O3</title>
<ellipse fill="#ff7256" stroke="#ff7256" cx="762" cy="-178.5" rx="28.5" ry="28.5"/>
<text text-anchor="start" x="748" y="-175.8" font-family="Times,serif" font-size="14.00" fill="#000000">a</text>
<text text-anchor="start" x="755" y="-175.8" font-family="Times,serif" baseline-shift="sub" font-size="14.00" fill="#000000">3</text>
<text text-anchor="start" x="762" y="-175.8" font-family="Times,serif" baseline-shift="super" font-size="14.00" fill="#000000">(4)</text>
</g>
<!-- a03&#45;&gt;O3 -->
<g id="edge30" class="edge">
<title>a03:e&#45;&gt;O3:w</title>
<path fill="none" stroke="#000000" d="M557,-403.5C557,-403.5 695.3835,-226.5892 726.7361,-186.5079"/>
<polygon fill="#000000" stroke="#000000" points="729.5956,-188.533 733,-178.5 724.082,-184.2201 729.5956,-188.533"/>
</g>
<!-- O4 -->
<g id="node20" class="node">
<title>O4</title>
<ellipse fill="#ff7256" stroke="#ff7256" cx="762" cy="-103.5" rx="28.5" ry="28.5"/>
<text text-anchor="start" x="748" y="-100.8" font-family="Times,serif" font-size="14.00" fill="#000000">a</text>
<text text-anchor="start" x="755" y="-100.8" font-family="Times,serif" baseline-shift="sub" font-size="14.00" fill="#000000">4</text>
<text text-anchor="start" x="762" y="-100.8" font-family="Times,serif" baseline-shift="super" font-size="14.00" fill="#000000">(4)</text>
</g>
<!-- a03&#45;&gt;O4 -->
<g id="edge31" class="edge">
<title>a03:e&#45;&gt;O4:w</title>
<path fill="none" stroke="#000000" d="M557,-403.5C557,-403.5 699.0654,-161.343 727.9225,-112.1549"/>
<polygon fill="#000000" stroke="#000000" points="730.9586,-113.8963 733,-103.5 724.921,-110.3542 730.9586,-113.8963"/>
</g>
<!-- x2 -->
<g id="node5" class="node">
<title>x2</title>
<ellipse fill="#7fff00" stroke="#7fff00" cx="62.5" cy="-149.5" rx="19.5" ry="19.5"/>
<text text-anchor="start" x="55.5" y="-146.8" font-family="Times,serif" font-size="14.00" fill="#000000">x</text>
<text text-anchor="start" x="62.5" y="-146.8" font-family="Times,serif" baseline-shift="sub" font-size="14.00" fill="#000000">2</text>
</g>
<!-- x1&#45;&gt;x2 -->
<!-- x1&#45;&gt;a12 -->
<g id="edge32" class="edge">
<title>x1:e&#45;&gt;a12:w</title>
<path fill="none" stroke="#000000" d="M82.5,-206.5C82.5,-206.5 218.9906,-298.2457 255.2459,-322.6157"/>
<polygon fill="#000000" stroke="#000000" points="253.7481,-325.8261 264,-328.5 257.6532,-320.0166 253.7481,-325.8261"/>
</g>
<!-- x1&#45;&gt;a22 -->
<g id="edge33" class="edge">
<title>x1:e&#45;&gt;a22:w</title>
<path fill="none" stroke="#000000" d="M82.5,-206.5C82.5,-206.5 216.5424,-241.2107 254.2418,-250.9731"/>
<polygon fill="#000000" stroke="#000000" points="253.4419,-254.3813 264,-253.5 255.1967,-247.6048 253.4419,-254.3813"/>
</g>
<!-- x1&#45;&gt;a32 -->
<g id="edge34" class="edge">
<title>x1:e&#45;&gt;a32:w</title>
<path fill="none" stroke="#000000" d="M82.5,-206.5C82.5,-206.5 215.9338,-185.9152 253.9832,-180.0453"/>
<polygon fill="#000000" stroke="#000000" points="254.6506,-183.4838 264,-178.5 253.5833,-176.5657 254.6506,-183.4838"/>
</g>
<!-- x1&#45;&gt;a42 -->
<g id="edge35" class="edge">
<title>x1:e&#45;&gt;a42:w</title>
<path fill="none" stroke="#000000" d="M82.5,-206.5C82.5,-206.5 218.9906,-129.0425 255.2459,-108.4679"/>
<polygon fill="#000000" stroke="#000000" points="257.0303,-111.4796 264,-103.5 253.5754,-105.3916 257.0303,-111.4796"/>
</g>
<!-- x1&#45;&gt;a52 -->
<g id="edge36" class="edge">
<title>x1:e&#45;&gt;a52:w</title>
<path fill="none" stroke="#000000" d="M82.5,-206.5C82.5,-206.5 222.7044,-68.9992 256.6602,-35.6983"/>
<polygon fill="#000000" stroke="#000000" points="259.3111,-38.0008 264,-28.5 254.4097,-33.0031 259.3111,-38.0008"/>
</g>
<!-- x3 -->
<g id="node6" class="node">
<title>x3</title>
<ellipse fill="#7fff00" stroke="#7fff00" cx="62.5" cy="-92.5" rx="19.5" ry="19.5"/>
<text text-anchor="start" x="55.5" y="-89.8" font-family="Times,serif" font-size="14.00" fill="#000000">x</text>
<text text-anchor="start" x="62.5" y="-89.8" font-family="Times,serif" baseline-shift="sub" font-size="14.00" fill="#000000">3</text>
</g>
<!-- x2&#45;&gt;x3 -->
<!-- x2&#45;&gt;a12 -->
<g id="edge37" class="edge">
<title>x2:e&#45;&gt;a12:w</title>
<path fill="none" stroke="#000000" d="M82.5,-149.5C82.5,-149.5 222.7044,-287.7732 256.6602,-321.2613"/>
<polygon fill="#000000" stroke="#000000" points="254.4224,-323.9701 264,-328.5 259.3377,-318.9861 254.4224,-323.9701"/>
</g>
<!-- x2&#45;&gt;a22 -->
<g id="edge38" class="edge">
<title>x2:e&#45;&gt;a22:w</title>
<path fill="none" stroke="#000000" d="M82.5,-149.5C82.5,-149.5 218.9906,-227.7095 255.2459,-248.4839"/>
<polygon fill="#000000" stroke="#000000" points="253.5833,-251.5651 264,-253.5 257.0636,-245.4915 253.5833,-251.5651"/>
</g>
<!-- x2&#45;&gt;a32 -->
<g id="edge39" class="edge">
<title>x2:e&#45;&gt;a32:w</title>
<path fill="none" stroke="#000000" d="M82.5,-149.5C82.5,-149.5 215.9338,-170.82 253.9832,-176.8995"/>
<polygon fill="#000000" stroke="#000000" points="253.573,-180.3783 264,-178.5 254.6775,-173.466 253.573,-180.3783"/>
</g>
<!-- x2&#45;&gt;a42 -->
<g id="edge40" class="edge">
<title>x2:e&#45;&gt;a42:w</title>
<path fill="none" stroke="#000000" d="M82.5,-149.5C82.5,-149.5 216.5424,-115.5278 254.2418,-105.9732"/>
<polygon fill="#000000" stroke="#000000" points="255.1664,-109.3496 264,-103.5 253.4466,-102.5641 255.1664,-109.3496"/>
</g>
<!-- x2&#45;&gt;a52 -->
<g id="edge41" class="edge">
<title>x2:e&#45;&gt;a52:w</title>
<path fill="none" stroke="#000000" d="M82.5,-149.5C82.5,-149.5 218.9906,-58.5063 255.2459,-34.3361"/>
<polygon fill="#000000" stroke="#000000" points="257.6209,-36.9592 264,-28.5 253.738,-31.1349 257.6209,-36.9592"/>
</g>
<!-- x3&#45;&gt;a12 -->
<g id="edge42" class="edge">
<title>x3:e&#45;&gt;a12:w</title>
<path fill="none" stroke="#000000" d="M82.5,-92.5C82.5,-92.5 225.8374,-278.8781 257.7524,-320.3763"/>
<polygon fill="#000000" stroke="#000000" points="255.1293,-322.7068 264,-328.5 260.6781,-318.4394 255.1293,-322.7068"/>
</g>
<!-- x3&#45;&gt;a22 -->
<g id="edge43" class="edge">
<title>x3:e&#45;&gt;a22:w</title>
<path fill="none" stroke="#000000" d="M82.5,-92.5C82.5,-92.5 221.4609,-215.7656 256.2012,-246.582"/>
<polygon fill="#000000" stroke="#000000" points="254.1965,-249.4823 264,-253.5 258.8417,-244.2457 254.1965,-249.4823"/>
</g>
<!-- x3&#45;&gt;a32 -->
<g id="edge44" class="edge">
<title>x3:e&#45;&gt;a32:w</title>
<path fill="none" stroke="#000000" d="M82.5,-92.5C82.5,-92.5 217.7637,-156.5919 254.7499,-174.117"/>
<polygon fill="#000000" stroke="#000000" points="253.4644,-177.3809 264,-178.5 256.4618,-171.0551 253.4644,-177.3809"/>
</g>
<!-- x3&#45;&gt;a42 -->
<g id="edge45" class="edge">
<title>x3:e&#45;&gt;a42:w</title>
<path fill="none" stroke="#000000" d="M82.5,-92.5C82.5,-92.5 215.9338,-100.5869 253.9832,-102.8929"/>
<polygon fill="#000000" stroke="#000000" points="253.8065,-106.3885 264,-103.5 254.2301,-99.4014 253.8065,-106.3885"/>
</g>
<!-- x3&#45;&gt;a52 -->
<g id="edge46" class="edge">
<title>x3:e&#45;&gt;a52:w</title>
<path fill="none" stroke="#000000" d="M82.5,-92.5C82.5,-92.5 216.5424,-45.2344 254.2418,-31.9409"/>
<polygon fill="#000000" stroke="#000000" points="255.7331,-35.1264 264,-28.5 253.4052,-28.5247 255.7331,-35.1264"/>
</g>
<!-- a12&#45;&gt;a22 -->
<!-- a12&#45;&gt;a13 -->
<g id="edge47" class="edge">
<title>a12:e&#45;&gt;a13:w</title>
<path fill="none" stroke="#000000" d="M322,-328.5C322,-328.5 451.5333,-328.5 488.9766,-328.5"/>
<polygon fill="#000000" stroke="#000000" points="489,-332.0001 499,-328.5 489,-325.0001 489,-332.0001"/>
</g>
<!-- a12&#45;&gt;a23 -->
<g id="edge48" class="edge">
<title>a12:e&#45;&gt;a23:w</title>
<path fill="none" stroke="#000000" d="M322,-328.5C322,-328.5 452.719,-273.1106 489.4837,-257.5323"/>
<polygon fill="#000000" stroke="#000000" points="491.158,-260.6242 499,-253.5 488.4269,-254.1789 491.158,-260.6242"/>
</g>
<!-- a12&#45;&gt;a33 -->
<g id="edge49" class="edge">
<title>a12:e&#45;&gt;a33:w</title>
<path fill="none" stroke="#000000" d="M322,-328.5C322,-328.5 456.3084,-214.6794 490.9347,-185.335"/>
<polygon fill="#000000" stroke="#000000" points="493.6339,-187.6354 499,-178.5 489.1082,-182.2951 493.6339,-187.6354"/>
</g>
<!-- a12&#45;&gt;a43 -->
<g id="edge50" class="edge">
<title>a12:e&#45;&gt;a43:w</title>
<path fill="none" stroke="#000000" d="M322,-328.5C322,-328.5 461.1698,-151.5892 492.7005,-111.5079"/>
<polygon fill="#000000" stroke="#000000" points="495.568,-113.5236 499,-103.5 490.0663,-109.1956 495.568,-113.5236"/>
</g>
<!-- a12&#45;&gt;a53 -->
<g id="edge51" class="edge">
<title>a12:e&#45;&gt;a53:w</title>
<path fill="none" stroke="#000000" d="M322,-328.5C322,-328.5 464.8726,-86.343 493.8936,-37.1549"/>
<polygon fill="#000000" stroke="#000000" points="496.9329,-38.8912 499,-28.5 490.904,-35.3342 496.9329,-38.8912"/>
</g>
<!-- a22&#45;&gt;a32 -->
<!-- a22&#45;&gt;a13 -->
<g id="edge52" class="edge">
<title>a22:e&#45;&gt;a13:w</title>
<path fill="none" stroke="#000000" d="M322,-253.5C322,-253.5 452.719,-308.8894 489.4837,-324.4677"/>
<polygon fill="#000000" stroke="#000000" points="488.4269,-327.8211 499,-328.5 491.158,-321.3758 488.4269,-327.8211"/>
</g>
<!-- a22&#45;&gt;a23 -->
<g id="edge53" class="edge">
<title>a22:e&#45;&gt;a23:w</title>
<path fill="none" stroke="#000000" d="M322,-253.5C322,-253.5 451.5333,-253.5 488.9766,-253.5"/>
<polygon fill="#000000" stroke="#000000" points="489,-257.0001 499,-253.5 489,-250.0001 489,-257.0001"/>
</g>
<!-- a22&#45;&gt;a33 -->
<g id="edge54" class="edge">
<title>a22:e&#45;&gt;a33:w</title>
<path fill="none" stroke="#000000" d="M322,-253.5C322,-253.5 452.719,-198.1106 489.4837,-182.5323"/>
<polygon fill="#000000" stroke="#000000" points="491.158,-185.6242 499,-178.5 488.4269,-179.1789 491.158,-185.6242"/>
</g>
<!-- a22&#45;&gt;a43 -->
<g id="edge55" class="edge">
<title>a22:e&#45;&gt;a43:w</title>
<path fill="none" stroke="#000000" d="M322,-253.5C322,-253.5 456.3084,-139.6794 490.9347,-110.335"/>
<polygon fill="#000000" stroke="#000000" points="493.6339,-112.6354 499,-103.5 489.1082,-107.2951 493.6339,-112.6354"/>
</g>
<!-- a22&#45;&gt;a53 -->
<g id="edge56" class="edge">
<title>a22:e&#45;&gt;a53:w</title>
<path fill="none" stroke="#000000" d="M322,-253.5C322,-253.5 461.1698,-76.5892 492.7005,-36.5079"/>
<polygon fill="#000000" stroke="#000000" points="495.568,-38.5236 499,-28.5 490.0663,-34.1956 495.568,-38.5236"/>
</g>
<!-- a32&#45;&gt;a42 -->
<!-- a32&#45;&gt;a13 -->
<g id="edge57" class="edge">
<title>a32:e&#45;&gt;a13:w</title>
<path fill="none" stroke="#000000" d="M322,-178.5C322,-178.5 456.3084,-292.3206 490.9347,-321.665"/>
<polygon fill="#000000" stroke="#000000" points="489.1082,-324.7049 499,-328.5 493.6339,-319.3646 489.1082,-324.7049"/>
</g>
<!-- a32&#45;&gt;a23 -->
<g id="edge58" class="edge">
<title>a32:e&#45;&gt;a23:w</title>
<path fill="none" stroke="#000000" d="M322,-178.5C322,-178.5 452.719,-233.8894 489.4837,-249.4677"/>
<polygon fill="#000000" stroke="#000000" points="488.4269,-252.8211 499,-253.5 491.158,-246.3758 488.4269,-252.8211"/>
</g>
<!-- a32&#45;&gt;a33 -->
<g id="edge59" class="edge">
<title>a32:e&#45;&gt;a33:w</title>
<path fill="none" stroke="#000000" d="M322,-178.5C322,-178.5 451.5333,-178.5 488.9766,-178.5"/>
<polygon fill="#000000" stroke="#000000" points="489,-182.0001 499,-178.5 489,-175.0001 489,-182.0001"/>
</g>
<!-- a32&#45;&gt;a43 -->
<g id="edge60" class="edge">
<title>a32:e&#45;&gt;a43:w</title>
<path fill="none" stroke="#000000" d="M322,-178.5C322,-178.5 452.719,-123.1106 489.4837,-107.5323"/>
<polygon fill="#000000" stroke="#000000" points="491.158,-110.6242 499,-103.5 488.4269,-104.1789 491.158,-110.6242"/>
</g>
<!-- a32&#45;&gt;a53 -->
<g id="edge61" class="edge">
<title>a32:e&#45;&gt;a53:w</title>
<path fill="none" stroke="#000000" d="M322,-178.5C322,-178.5 456.3084,-64.6794 490.9347,-35.335"/>
<polygon fill="#000000" stroke="#000000" points="493.6339,-37.6354 499,-28.5 489.1082,-32.2951 493.6339,-37.6354"/>
</g>
<!-- a42&#45;&gt;a52 -->
<!-- a42&#45;&gt;a13 -->
<g id="edge62" class="edge">
<title>a42:e&#45;&gt;a13:w</title>
<path fill="none" stroke="#000000" d="M322,-103.5C322,-103.5 461.1698,-280.4108 492.7005,-320.4921"/>
<polygon fill="#000000" stroke="#000000" points="490.0663,-322.8044 499,-328.5 495.568,-318.4764 490.0663,-322.8044"/>
</g>
<!-- a42&#45;&gt;a23 -->
<g id="edge63" class="edge">
<title>a42:e&#45;&gt;a23:w</title>
<path fill="none" stroke="#000000" d="M322,-103.5C322,-103.5 456.3084,-217.3206 490.9347,-246.665"/>
<polygon fill="#000000" stroke="#000000" points="489.1082,-249.7049 499,-253.5 493.6339,-244.3646 489.1082,-249.7049"/>
</g>
<!-- a42&#45;&gt;a33 -->
<g id="edge64" class="edge">
<title>a42:e&#45;&gt;a33:w</title>
<path fill="none" stroke="#000000" d="M322,-103.5C322,-103.5 452.719,-158.8894 489.4837,-174.4677"/>
<polygon fill="#000000" stroke="#000000" points="488.4269,-177.8211 499,-178.5 491.158,-171.3758 488.4269,-177.8211"/>
</g>
<!-- a42&#45;&gt;a43 -->
<g id="edge65" class="edge">
<title>a42:e&#45;&gt;a43:w</title>
<path fill="none" stroke="#000000" d="M322,-103.5C322,-103.5 451.5333,-103.5 488.9766,-103.5"/>
<polygon fill="#000000" stroke="#000000" points="489,-107.0001 499,-103.5 489,-100.0001 489,-107.0001"/>
</g>
<!-- a42&#45;&gt;a53 -->
<g id="edge66" class="edge">
<title>a42:e&#45;&gt;a53:w</title>
<path fill="none" stroke="#000000" d="M322,-103.5C322,-103.5 452.719,-48.1106 489.4837,-32.5323"/>
<polygon fill="#000000" stroke="#000000" points="491.158,-35.6242 499,-28.5 488.4269,-29.1789 491.158,-35.6242"/>
</g>
<!-- a52&#45;&gt;a13 -->
<g id="edge67" class="edge">
<title>a52:e&#45;&gt;a13:w</title>
<path fill="none" stroke="#000000" d="M322,-28.5C322,-28.5 464.8726,-270.657 493.8936,-319.8451"/>
<polygon fill="#000000" stroke="#000000" points="490.904,-321.6658 499,-328.5 496.9329,-318.1088 490.904,-321.6658"/>
</g>
<!-- a52&#45;&gt;a23 -->
<g id="edge68" class="edge">
<title>a52:e&#45;&gt;a23:w</title>
<path fill="none" stroke="#000000" d="M322,-28.5C322,-28.5 461.1698,-205.4108 492.7005,-245.4921"/>
<polygon fill="#000000" stroke="#000000" points="490.0663,-247.8044 499,-253.5 495.568,-243.4764 490.0663,-247.8044"/>
</g>
<!-- a52&#45;&gt;a33 -->
<g id="edge69" class="edge">
<title>a52:e&#45;&gt;a33:w</title>
<path fill="none" stroke="#000000" d="M322,-28.5C322,-28.5 456.3084,-142.3206 490.9347,-171.665"/>
<polygon fill="#000000" stroke="#000000" points="489.1082,-174.7049 499,-178.5 493.6339,-169.3646 489.1082,-174.7049"/>
</g>
<!-- a52&#45;&gt;a43 -->
<g id="edge70" class="edge">
<title>a52:e&#45;&gt;a43:w</title>
<path fill="none" stroke="#000000" d="M322,-28.5C322,-28.5 452.719,-83.8894 489.4837,-99.4677"/>
<polygon fill="#000000" stroke="#000000" points="488.4269,-102.8211 499,-103.5 491.158,-96.3758 488.4269,-102.8211"/>
</g>
<!-- a52&#45;&gt;a53 -->
<g id="edge71" class="edge">
<title>a52:e&#45;&gt;a53:w</title>
<path fill="none" stroke="#000000" d="M322,-28.5C322,-28.5 451.5333,-28.5 488.9766,-28.5"/>
<polygon fill="#000000" stroke="#000000" points="489,-32.0001 499,-28.5 489,-25.0001 489,-32.0001"/>
</g>
<!-- a13&#45;&gt;a23 -->
<!-- a13&#45;&gt;O1 -->
<g id="edge72" class="edge">
<title>a13:e&#45;&gt;O1:w</title>
<path fill="none" stroke="#000000" d="M557,-328.5C557,-328.5 685.2141,-328.5 722.7768,-328.5"/>
<polygon fill="#000000" stroke="#000000" points="723,-332.0001 733,-328.5 723,-325.0001 723,-332.0001"/>
</g>
<!-- a13&#45;&gt;O2 -->
<g id="edge73" class="edge">
<title>a13:e&#45;&gt;O2:w</title>
<path fill="none" stroke="#000000" d="M557,-328.5C557,-328.5 686.9805,-273.1106 723.5375,-257.5323"/>
<polygon fill="#000000" stroke="#000000" points="725.1726,-260.6402 733,-253.5 722.4283,-254.2005 725.1726,-260.6402"/>
</g>
<!-- a13&#45;&gt;O3 -->
<g id="edge74" class="edge">
<title>a13:e&#45;&gt;O3:w</title>
<path fill="none" stroke="#000000" d="M557,-328.5C557,-328.5 690.5496,-214.6794 724.9803,-185.335"/>
<polygon fill="#000000" stroke="#000000" points="727.6594,-187.6504 733,-178.5 723.1188,-182.3227 727.6594,-187.6504"/>
</g>
<!-- a13&#45;&gt;O4 -->
<g id="edge75" class="edge">
<title>a13:e&#45;&gt;O4:w</title>
<path fill="none" stroke="#000000" d="M557,-328.5C557,-328.5 695.3835,-151.5892 726.7361,-111.5079"/>
<polygon fill="#000000" stroke="#000000" points="729.5956,-113.533 733,-103.5 724.082,-109.2201 729.5956,-113.533"/>
</g>
<!-- a23&#45;&gt;a33 -->
<!-- a23&#45;&gt;O1 -->
<g id="edge76" class="edge">
<title>a23:e&#45;&gt;O1:w</title>
<path fill="none" stroke="#000000" d="M557,-253.5C557,-253.5 686.9805,-308.8894 723.5375,-324.4677"/>
<polygon fill="#000000" stroke="#000000" points="722.4283,-327.7995 733,-328.5 725.1726,-321.3598 722.4283,-327.7995"/>
</g>
<!-- a23&#45;&gt;O2 -->
<g id="edge77" class="edge">
<title>a23:e&#45;&gt;O2:w</title>
<path fill="none" stroke="#000000" d="M557,-253.5C557,-253.5 685.2141,-253.5 722.7768,-253.5"/>
<polygon fill="#000000" stroke="#000000" points="723,-257.0001 733,-253.5 723,-250.0001 723,-257.0001"/>
</g>
<!-- a23&#45;&gt;O3 -->
<g id="edge78" class="edge">
<title>a23:e&#45;&gt;O3:w</title>
<path fill="none" stroke="#000000" d="M557,-253.5C557,-253.5 686.9805,-198.1106 723.5375,-182.5323"/>
<polygon fill="#000000" stroke="#000000" points="725.1726,-185.6402 733,-178.5 722.4283,-179.2005 725.1726,-185.6402"/>
</g>
<!-- a23&#45;&gt;O4 -->
<g id="edge79" class="edge">
<title>a23:e&#45;&gt;O4:w</title>
<path fill="none" stroke="#000000" d="M557,-253.5C557,-253.5 690.5496,-139.6794 724.9803,-110.335"/>
<polygon fill="#000000" stroke="#000000" points="727.6594,-112.6504 733,-103.5 723.1188,-107.3227 727.6594,-112.6504"/>
</g>
<!-- a33&#45;&gt;a43 -->
<!-- a33&#45;&gt;O1 -->
<g id="edge80" class="edge">
<title>a33:e&#45;&gt;O1:w</title>
<path fill="none" stroke="#000000" d="M557,-178.5C557,-178.5 690.5496,-292.3206 724.9803,-321.665"/>
<polygon fill="#000000" stroke="#000000" points="723.1188,-324.6773 733,-328.5 727.6594,-319.3496 723.1188,-324.6773"/>
</g>
<!-- a33&#45;&gt;O2 -->
<g id="edge81" class="edge">
<title>a33:e&#45;&gt;O2:w</title>
<path fill="none" stroke="#000000" d="M557,-178.5C557,-178.5 686.9805,-233.8894 723.5375,-249.4677"/>
<polygon fill="#000000" stroke="#000000" points="722.4283,-252.7995 733,-253.5 725.1726,-246.3598 722.4283,-252.7995"/>
</g>
<!-- a33&#45;&gt;O3 -->
<g id="edge82" class="edge">
<title>a33:e&#45;&gt;O3:w</title>
<path fill="none" stroke="#000000" d="M557,-178.5C557,-178.5 685.2141,-178.5 722.7768,-178.5"/>
<polygon fill="#000000" stroke="#000000" points="723,-182.0001 733,-178.5 723,-175.0001 723,-182.0001"/>
</g>
<!-- a33&#45;&gt;O4 -->
<g id="edge83" class="edge">
<title>a33:e&#45;&gt;O4:w</title>
<path fill="none" stroke="#000000" d="M557,-178.5C557,-178.5 686.9805,-123.1106 723.5375,-107.5323"/>
<polygon fill="#000000" stroke="#000000" points="725.1726,-110.6402 733,-103.5 722.4283,-104.2005 725.1726,-110.6402"/>
</g>
<!-- a43&#45;&gt;a53 -->
<!-- a43&#45;&gt;O1 -->
<g id="edge84" class="edge">
<title>a43:e&#45;&gt;O1:w</title>
<path fill="none" stroke="#000000" d="M557,-103.5C557,-103.5 695.3835,-280.4108 726.7361,-320.4921"/>
<polygon fill="#000000" stroke="#000000" points="724.082,-322.7799 733,-328.5 729.5956,-318.467 724.082,-322.7799"/>
</g>
<!-- a43&#45;&gt;O2 -->
<g id="edge85" class="edge">
<title>a43:e&#45;&gt;O2:w</title>
<path fill="none" stroke="#000000" d="M557,-103.5C557,-103.5 690.5496,-217.3206 724.9803,-246.665"/>
<polygon fill="#000000" stroke="#000000" points="723.1188,-249.6773 733,-253.5 727.6594,-244.3496 723.1188,-249.6773"/>
</g>
<!-- a43&#45;&gt;O3 -->
<g id="edge86" class="edge">
<title>a43:e&#45;&gt;O3:w</title>
<path fill="none" stroke="#000000" d="M557,-103.5C557,-103.5 686.9805,-158.8894 723.5375,-174.4677"/>
<polygon fill="#000000" stroke="#000000" points="722.4283,-177.7995 733,-178.5 725.1726,-171.3598 722.4283,-177.7995"/>
</g>
<!-- a43&#45;&gt;O4 -->
<g id="edge87" class="edge">
<title>a43:e&#45;&gt;O4:w</title>
<path fill="none" stroke="#000000" d="M557,-103.5C557,-103.5 685.2141,-103.5 722.7768,-103.5"/>
<polygon fill="#000000" stroke="#000000" points="723,-107.0001 733,-103.5 723,-100.0001 723,-107.0001"/>
</g>
<!-- a53&#45;&gt;O1 -->
<g id="edge88" class="edge">
<title>a53:e&#45;&gt;O1:w</title>
<path fill="none" stroke="#000000" d="M557,-28.5C557,-28.5 699.0654,-270.657 727.9225,-319.8451"/>
<polygon fill="#000000" stroke="#000000" points="724.921,-321.6458 733,-328.5 730.9586,-318.1037 724.921,-321.6458"/>
</g>
<!-- a53&#45;&gt;O2 -->
<g id="edge89" class="edge">
<title>a53:e&#45;&gt;O2:w</title>
<path fill="none" stroke="#000000" d="M557,-28.5C557,-28.5 695.3835,-205.4108 726.7361,-245.4921"/>
<polygon fill="#000000" stroke="#000000" points="724.082,-247.7799 733,-253.5 729.5956,-243.467 724.082,-247.7799"/>
</g>
<!-- a53&#45;&gt;O3 -->
<g id="edge90" class="edge">
<title>a53:e&#45;&gt;O3:w</title>
<path fill="none" stroke="#000000" d="M557,-28.5C557,-28.5 690.5496,-142.3206 724.9803,-171.665"/>
<polygon fill="#000000" stroke="#000000" points="723.1188,-174.6773 733,-178.5 727.6594,-169.3496 723.1188,-174.6773"/>
</g>
<!-- a53&#45;&gt;O4 -->
<g id="edge91" class="edge">
<title>a53:e&#45;&gt;O4:w</title>
<path fill="none" stroke="#000000" d="M557,-28.5C557,-28.5 686.9805,-83.8894 723.5375,-99.4677"/>
<polygon fill="#000000" stroke="#000000" points="722.4283,-102.7995 733,-103.5 725.1726,-96.3598 722.4283,-102.7995"/>
</g>
<!-- O1&#45;&gt;O2 -->
<!-- O2&#45;&gt;O3 -->
<!-- O3&#45;&gt;O4 -->
<!-- l0 -->
<g id="node21" class="node">
<title>l0</title>
<text text-anchor="middle" x="62.5" y="-315.8" font-family="Times,serif" font-size="14.00" fill="#000000">layer 1 (input layer)</text>
</g>
<!-- l0&#45;&gt;x0 -->
<!-- l1 -->
<g id="node22" class="node">
<title>l1</title>
<text text-anchor="middle" x="293" y="-464.8" font-family="Times,serif" font-size="14.00" fill="#000000">layer 2 (hidden layer)</text>
</g>
<!-- l1&#45;&gt;a02 -->
<!-- l2 -->
<g id="node23" class="node">
<title>l2</title>
<text text-anchor="middle" x="528" y="-464.8" font-family="Times,serif" font-size="14.00" fill="#000000">layer 3 (hidden layer)</text>
</g>
<!-- l2&#45;&gt;a03 -->
<!-- l3 -->
<g id="node24" class="node">
<title>l3</title>
<text text-anchor="middle" x="762" y="-389.8" font-family="Times,serif" font-size="14.00" fill="#000000">layer 4 (output layer)</text>
</g>
<!-- l3&#45;&gt;O1 -->
</g>
</svg>
