<?xml version="1.0" encoding="UTF-8" standalone="no"?>
<!DOCTYPE svg PUBLIC "-//W3C//DTD SVG 1.1//EN"
 "http://www.w3.org/Graphics/SVG/1.1/DTD/svg11.dtd">
<!-- Generated by graphviz version 2.40.1 (20161225.0304)
 -->
<!-- Title: matrix Pages: 1 -->
<svg width="496pt" height="1196pt"
 viewBox="0.00 0.00 496.00 1196.00" xmlns="http://www.w3.org/2000/svg" xmlns:xlink="http://www.w3.org/1999/xlink">
<g id="graph0" class="graph" transform="scale(1 1) rotate(0) translate(4 1192)">
<title>matrix</title>
<polygon fill="#ffffff" stroke="transparent" points="-4,4 -4,-1192 492,-1192 492,4 -4,4"/>
<!-- 723 -->
<g id="node1" class="node">
<title>723</title>
<ellipse fill="none" stroke="#000000" cx="268" cy="-1170" rx="27" ry="18"/>
<text text-anchor="middle" x="268" y="-1166.3" font-family="Times,serif" font-size="14.00" fill="#000000">723</text>
</g>
<!-- 722 -->
<g id="node2" class="node">
<title>722</title>
<ellipse fill="none" stroke="#000000" cx="268" cy="-1098" rx="27" ry="18"/>
<text text-anchor="middle" x="268" y="-1094.3" font-family="Times,serif" font-size="14.00" fill="#000000">722</text>
</g>
<!-- 723&#45;&gt;722 -->
<g id="edge1" class="edge">
<title>723&#45;&gt;722</title>
<path fill="none" stroke="#000000" d="M268,-1151.8314C268,-1144.131 268,-1134.9743 268,-1126.4166"/>
<polygon fill="#000000" stroke="#000000" points="271.5001,-1126.4132 268,-1116.4133 264.5001,-1126.4133 271.5001,-1126.4132"/>
</g>
<!-- 731 -->
<g id="node3" class="node">
<title>731</title>
<ellipse fill="none" stroke="#000000" cx="268" cy="-1026" rx="27" ry="18"/>
<text text-anchor="middle" x="268" y="-1022.3" font-family="Times,serif" font-size="14.00" fill="#000000">731</text>
</g>
<!-- 722&#45;&gt;731 -->
<g id="edge2" class="edge">
<title>722&#45;&gt;731</title>
<path fill="none" stroke="#000000" d="M268,-1079.8314C268,-1072.131 268,-1062.9743 268,-1054.4166"/>
<polygon fill="#000000" stroke="#000000" points="271.5001,-1054.4132 268,-1044.4133 264.5001,-1054.4133 271.5001,-1054.4132"/>
</g>
<!-- 730 -->
<g id="node4" class="node">
<title>730</title>
<ellipse fill="none" stroke="#000000" cx="268" cy="-954" rx="27" ry="18"/>
<text text-anchor="middle" x="268" y="-950.3" font-family="Times,serif" font-size="14.00" fill="#000000">730</text>
</g>
<!-- 731&#45;&gt;730 -->
<g id="edge3" class="edge">
<title>731&#45;&gt;730</title>
<path fill="none" stroke="#000000" d="M268,-1007.8314C268,-1000.131 268,-990.9743 268,-982.4166"/>
<polygon fill="#000000" stroke="#000000" points="271.5001,-982.4132 268,-972.4133 264.5001,-982.4133 271.5001,-982.4132"/>
</g>
<!-- 729 -->
<g id="node5" class="node">
<title>729</title>
<ellipse fill="none" stroke="#000000" cx="241" cy="-810" rx="27" ry="18"/>
<text text-anchor="middle" x="241" y="-806.3" font-family="Times,serif" font-size="14.00" fill="#000000">729</text>
</g>
<!-- 730&#45;&gt;729 -->
<g id="edge4" class="edge">
<title>730&#45;&gt;729</title>
<path fill="none" stroke="#000000" d="M264.635,-936.0535C260.027,-911.4774 251.7064,-867.1008 246.2683,-838.0974"/>
<polygon fill="#000000" stroke="#000000" points="249.6904,-837.3564 244.4074,-828.1727 242.8103,-838.6465 249.6904,-837.3564"/>
</g>
<!-- 726 -->
<g id="node6" class="node">
<title>726</title>
<ellipse fill="none" stroke="#000000" cx="296" cy="-882" rx="27" ry="18"/>
<text text-anchor="middle" x="296" y="-878.3" font-family="Times,serif" font-size="14.00" fill="#000000">726</text>
</g>
<!-- 730&#45;&gt;726 -->
<g id="edge5" class="edge">
<title>730&#45;&gt;726</title>
<path fill="none" stroke="#000000" d="M274.778,-936.5708C277.9872,-928.3187 281.8935,-918.2738 285.4758,-909.0623"/>
<polygon fill="#000000" stroke="#000000" points="288.8248,-910.1069 289.1874,-899.5182 282.3008,-907.5697 288.8248,-910.1069"/>
</g>
<!-- 505 -->
<g id="node7" class="node">
<title>505</title>
<ellipse fill="none" stroke="#000000" cx="68" cy="-738" rx="27" ry="18"/>
<text text-anchor="middle" x="68" y="-734.3" font-family="Times,serif" font-size="14.00" fill="#000000">505</text>
</g>
<!-- 729&#45;&gt;505 -->
<g id="edge21" class="edge">
<title>729&#45;&gt;505</title>
<path fill="none" stroke="#000000" d="M218.0269,-800.439C187.9111,-787.9052 134.8986,-765.8422 100.6287,-751.5796"/>
<polygon fill="#000000" stroke="#000000" points="101.6453,-748.2117 91.0681,-747.6006 98.9556,-754.6743 101.6453,-748.2117"/>
</g>
<!-- 732 -->
<g id="node8" class="node">
<title>732</title>
<ellipse fill="none" stroke="#000000" cx="131" cy="-666" rx="27" ry="18"/>
<text text-anchor="middle" x="131" y="-662.3" font-family="Times,serif" font-size="14.00" fill="#000000">732</text>
</g>
<!-- 729&#45;&gt;732 -->
<g id="edge22" class="edge">
<title>729&#45;&gt;732</title>
<path fill="none" stroke="#000000" d="M219.6434,-798.8147C203.3107,-789.3224 181.2449,-774.3372 167,-756 152.7143,-737.6102 143.3541,-712.8055 137.7685,-693.8937"/>
<polygon fill="#000000" stroke="#000000" points="141.0901,-692.7736 135.0465,-684.0716 134.3444,-694.6431 141.0901,-692.7736"/>
</g>
<!-- 733 -->
<g id="node16" class="node">
<title>733</title>
<ellipse fill="none" stroke="#000000" cx="351" cy="-378" rx="27" ry="18"/>
<text text-anchor="middle" x="351" y="-374.3" font-family="Times,serif" font-size="14.00" fill="#000000">733</text>
</g>
<!-- 729&#45;&gt;733 -->
<g id="edge24" class="edge">
<title>729&#45;&gt;733</title>
<path fill="none" stroke="#000000" d="M259.525,-796.3281C288.6828,-773.0778 342,-722.7975 342,-666 342,-666 342,-666 342,-522 342,-481.7977 345.5375,-435.4047 348.1768,-406.385"/>
<polygon fill="#000000" stroke="#000000" points="351.6864,-406.4457 349.1352,-396.1626 344.717,-405.7923 351.6864,-406.4457"/>
</g>
<!-- 810 -->
<g id="node20" class="node">
<title>810</title>
<ellipse fill="none" stroke="#000000" cx="340" cy="-306" rx="27" ry="18"/>
<text text-anchor="middle" x="340" y="-302.3" font-family="Times,serif" font-size="14.00" fill="#000000">810</text>
</g>
<!-- 729&#45;&gt;810 -->
<g id="edge23" class="edge">
<title>729&#45;&gt;810</title>
<path fill="none" stroke="#000000" d="M244.5224,-791.8955C249.5018,-764.6824 258,-711.5642 258,-666 258,-666 258,-666 258,-450 258,-408.6022 260.6857,-395.4892 282,-360 289.9801,-346.7129 302.1687,-334.6627 313.3164,-325.3339"/>
<polygon fill="#000000" stroke="#000000" points="315.5552,-328.0251 321.1747,-319.0433 311.1806,-322.5603 315.5552,-328.0251"/>
</g>
<!-- 726&#45;&gt;729 -->
<g id="edge31" class="edge">
<title>726&#45;&gt;729</title>
<path fill="none" stroke="#000000" d="M283.5196,-865.6621C276.4876,-856.4564 267.5653,-844.7764 259.7117,-834.4953"/>
<polygon fill="#000000" stroke="#000000" points="262.2828,-832.0953 253.431,-826.2733 256.72,-836.3446 262.2828,-832.0953"/>
</g>
<!-- 726&#45;&gt;810 -->
<g id="edge32" class="edge">
<title>726&#45;&gt;810</title>
<path fill="none" stroke="#000000" d="M296,-863.8146C296,-836.4983 296,-783.25 296,-738 296,-738 296,-738 296,-450 296,-409.1184 302.1082,-398.7958 315,-360 318.0771,-350.74 322.2868,-340.962 326.3745,-332.309"/>
<polygon fill="#000000" stroke="#000000" points="329.6262,-333.6263 330.8708,-323.1049 323.3365,-330.5537 329.6262,-333.6263"/>
</g>
<!-- 505&#45;&gt;732 -->
<g id="edge6" class="edge">
<title>505&#45;&gt;732</title>
<path fill="none" stroke="#000000" d="M81.6701,-722.3771C90.1734,-712.659 101.2613,-699.987 110.7708,-689.1191"/>
<polygon fill="#000000" stroke="#000000" points="113.4056,-691.423 117.3566,-681.5924 108.1375,-686.8135 113.4056,-691.423"/>
</g>
<!-- 506 -->
<g id="node9" class="node">
<title>506</title>
<ellipse fill="none" stroke="#000000" cx="38" cy="-306" rx="27" ry="18"/>
<text text-anchor="middle" x="38" y="-302.3" font-family="Times,serif" font-size="14.00" fill="#000000">506</text>
</g>
<!-- 505&#45;&gt;506 -->
<g id="edge7" class="edge">
<title>505&#45;&gt;506</title>
<path fill="none" stroke="#000000" d="M52.1513,-722.8181C42.4225,-712.674 30.4419,-698.5612 23,-684 4.2115,-647.2374 0,-635.2855 0,-594 0,-594 0,-594 0,-450 0,-407.9055 15.3687,-361.1122 26.5585,-332.6212"/>
<polygon fill="#000000" stroke="#000000" points="29.8056,-333.9274 30.3101,-323.3446 23.3162,-331.3029 29.8056,-333.9274"/>
</g>
<!-- 724 -->
<g id="node10" class="node">
<title>724</title>
<ellipse fill="none" stroke="#000000" cx="59" cy="-666" rx="27" ry="18"/>
<text text-anchor="middle" x="59" y="-662.3" font-family="Times,serif" font-size="14.00" fill="#000000">724</text>
</g>
<!-- 505&#45;&gt;724 -->
<g id="edge8" class="edge">
<title>505&#45;&gt;724</title>
<path fill="none" stroke="#000000" d="M65.7289,-719.8314C64.7664,-712.131 63.6218,-702.9743 62.5521,-694.4166"/>
<polygon fill="#000000" stroke="#000000" points="66.0151,-693.9019 61.3017,-684.4133 59.0691,-694.7702 66.0151,-693.9019"/>
</g>
<!-- 737 -->
<g id="node11" class="node">
<title>737</title>
<ellipse fill="none" stroke="#000000" cx="139" cy="-594" rx="27" ry="18"/>
<text text-anchor="middle" x="139" y="-590.3" font-family="Times,serif" font-size="14.00" fill="#000000">737</text>
</g>
<!-- 732&#45;&gt;737 -->
<g id="edge9" class="edge">
<title>732&#45;&gt;737</title>
<path fill="none" stroke="#000000" d="M133.0187,-647.8314C133.8743,-640.131 134.8917,-630.9743 135.8426,-622.4166"/>
<polygon fill="#000000" stroke="#000000" points="139.3283,-622.7386 136.9541,-612.4133 132.3711,-621.9656 139.3283,-622.7386"/>
</g>
<!-- 303 -->
<g id="node12" class="node">
<title>303</title>
<ellipse fill="none" stroke="#000000" cx="148" cy="-18" rx="27" ry="18"/>
<text text-anchor="middle" x="148" y="-14.3" font-family="Times,serif" font-size="14.00" fill="#000000">303</text>
</g>
<!-- 506&#45;&gt;303 -->
<g id="edge10" class="edge">
<title>506&#45;&gt;303</title>
<path fill="none" stroke="#000000" d="M34.2461,-287.8611C26.644,-246.1142 13.6125,-141.4927 57,-72 69.876,-51.3769 93.7593,-37.6449 113.8279,-29.1908"/>
<polygon fill="#000000" stroke="#000000" points="115.2862,-32.3782 123.3084,-25.4574 112.7214,-25.865 115.2862,-32.3782"/>
</g>
<!-- 780 -->
<g id="node13" class="node">
<title>780</title>
<ellipse fill="none" stroke="#000000" cx="93" cy="-90" rx="27" ry="18"/>
<text text-anchor="middle" x="93" y="-86.3" font-family="Times,serif" font-size="14.00" fill="#000000">780</text>
</g>
<!-- 506&#45;&gt;780 -->
<g id="edge11" class="edge">
<title>506&#45;&gt;780</title>
<path fill="none" stroke="#000000" d="M42.5164,-288.012C50.0332,-258.106 65.609,-196.2739 79,-144 81.1871,-135.4624 83.5883,-126.1711 85.7751,-117.7409"/>
<polygon fill="#000000" stroke="#000000" points="89.1804,-118.5521 88.3073,-107.9933 82.4053,-116.792 89.1804,-118.5521"/>
</g>
<!-- 736 -->
<g id="node14" class="node">
<title>736</title>
<ellipse fill="none" stroke="#000000" cx="148" cy="-450" rx="27" ry="18"/>
<text text-anchor="middle" x="148" y="-446.3" font-family="Times,serif" font-size="14.00" fill="#000000">736</text>
</g>
<!-- 737&#45;&gt;736 -->
<g id="edge12" class="edge">
<title>737&#45;&gt;736</title>
<path fill="none" stroke="#000000" d="M128.0915,-577.2705C122.0443,-566.9795 115.1306,-553.2615 112,-540 108.324,-524.428 107.3635,-519.3135 112,-504 115.2661,-493.2127 121.4764,-482.6108 127.8313,-473.6963"/>
<polygon fill="#000000" stroke="#000000" points="130.6285,-475.8001 133.8771,-465.7156 125.0487,-471.5732 130.6285,-475.8001"/>
</g>
<!-- 739 -->
<g id="node15" class="node">
<title>739</title>
<ellipse fill="none" stroke="#000000" cx="148" cy="-522" rx="27" ry="18"/>
<text text-anchor="middle" x="148" y="-518.3" font-family="Times,serif" font-size="14.00" fill="#000000">739</text>
</g>
<!-- 737&#45;&gt;739 -->
<g id="edge13" class="edge">
<title>737&#45;&gt;739</title>
<path fill="none" stroke="#000000" d="M141.2711,-575.8314C142.2336,-568.131 143.3782,-558.9743 144.4479,-550.4166"/>
<polygon fill="#000000" stroke="#000000" points="147.9309,-550.7702 145.6983,-540.4133 140.9849,-549.9019 147.9309,-550.7702"/>
</g>
<!-- 780&#45;&gt;303 -->
<g id="edge14" class="edge">
<title>780&#45;&gt;303</title>
<path fill="none" stroke="#000000" d="M105.4804,-73.6621C112.5124,-64.4564 121.4347,-52.7764 129.2883,-42.4953"/>
<polygon fill="#000000" stroke="#000000" points="132.28,-44.3446 135.569,-34.2733 126.7172,-40.0953 132.28,-44.3446"/>
</g>
<!-- 736&#45;&gt;506 -->
<g id="edge15" class="edge">
<title>736&#45;&gt;506</title>
<path fill="none" stroke="#000000" d="M123.6101,-441.906C102.6765,-433.6747 73.369,-418.849 57,-396 44.1905,-378.1195 39.6647,-353.427 38.2169,-334.4283"/>
<polygon fill="#000000" stroke="#000000" points="41.7032,-334.0719 37.6883,-324.2673 34.7126,-334.4356 41.7032,-334.0719"/>
</g>
<!-- 736&#45;&gt;733 -->
<g id="edge16" class="edge">
<title>736&#45;&gt;733</title>
<path fill="none" stroke="#000000" d="M172.0839,-441.4579C208.1771,-428.6564 276.4254,-404.4501 317.4013,-389.9168"/>
<polygon fill="#000000" stroke="#000000" points="318.6926,-393.1725 326.9474,-386.531 316.3527,-386.5751 318.6926,-393.1725"/>
</g>
<!-- 769 -->
<g id="node17" class="node">
<title>769</title>
<ellipse fill="none" stroke="#000000" cx="93" cy="-378" rx="27" ry="18"/>
<text text-anchor="middle" x="93" y="-374.3" font-family="Times,serif" font-size="14.00" fill="#000000">769</text>
</g>
<!-- 736&#45;&gt;769 -->
<g id="edge17" class="edge">
<title>736&#45;&gt;769</title>
<path fill="none" stroke="#000000" d="M135.5196,-433.6621C128.4876,-424.4564 119.5653,-412.7764 111.7117,-402.4953"/>
<polygon fill="#000000" stroke="#000000" points="114.2828,-400.0953 105.431,-394.2733 108.72,-404.3446 114.2828,-400.0953"/>
</g>
<!-- 778 -->
<g id="node18" class="node">
<title>778</title>
<ellipse fill="none" stroke="#000000" cx="148" cy="-234" rx="27" ry="18"/>
<text text-anchor="middle" x="148" y="-230.3" font-family="Times,serif" font-size="14.00" fill="#000000">778</text>
</g>
<!-- 736&#45;&gt;778 -->
<g id="edge18" class="edge">
<title>736&#45;&gt;778</title>
<path fill="none" stroke="#000000" d="M148,-431.9555C148,-394.3938 148,-307.5541 148,-262.4103"/>
<polygon fill="#000000" stroke="#000000" points="151.5001,-262.145 148,-252.1451 144.5001,-262.1451 151.5001,-262.145"/>
</g>
<!-- 773 -->
<g id="node19" class="node">
<title>773</title>
<ellipse fill="none" stroke="#000000" cx="203" cy="-378" rx="27" ry="18"/>
<text text-anchor="middle" x="203" y="-374.3" font-family="Times,serif" font-size="14.00" fill="#000000">773</text>
</g>
<!-- 736&#45;&gt;773 -->
<g id="edge19" class="edge">
<title>736&#45;&gt;773</title>
<path fill="none" stroke="#000000" d="M160.4804,-433.6621C167.5124,-424.4564 176.4347,-412.7764 184.2883,-402.4953"/>
<polygon fill="#000000" stroke="#000000" points="187.28,-404.3446 190.569,-394.2733 181.7172,-400.0953 187.28,-404.3446"/>
</g>
<!-- 739&#45;&gt;736 -->
<g id="edge20" class="edge">
<title>739&#45;&gt;736</title>
<path fill="none" stroke="#000000" d="M148,-503.8314C148,-496.131 148,-486.9743 148,-478.4166"/>
<polygon fill="#000000" stroke="#000000" points="151.5001,-478.4132 148,-468.4133 144.5001,-478.4133 151.5001,-478.4132"/>
</g>
<!-- 733&#45;&gt;810 -->
<g id="edge28" class="edge">
<title>733&#45;&gt;810</title>
<path fill="none" stroke="#000000" d="M348.2242,-359.8314C347.0297,-352.0125 345.6058,-342.6923 344.2812,-334.0221"/>
<polygon fill="#000000" stroke="#000000" points="347.707,-333.2701 342.7368,-323.9134 340.7873,-334.3273 347.707,-333.2701"/>
</g>
<!-- 792 -->
<g id="node22" class="node">
<title>792</title>
<ellipse fill="none" stroke="#000000" cx="461" cy="-306" rx="27" ry="18"/>
<text text-anchor="middle" x="461" y="-302.3" font-family="Times,serif" font-size="14.00" fill="#000000">792</text>
</g>
<!-- 733&#45;&gt;792 -->
<g id="edge29" class="edge">
<title>733&#45;&gt;792</title>
<path fill="none" stroke="#000000" d="M370.4126,-365.2936C387.742,-353.9507 413.3318,-337.201 432.8972,-324.3946"/>
<polygon fill="#000000" stroke="#000000" points="434.9613,-327.2267 441.4115,-318.8216 431.1276,-321.3698 434.9613,-327.2267"/>
</g>
<!-- 769&#45;&gt;506 -->
<g id="edge33" class="edge">
<title>769&#45;&gt;506</title>
<path fill="none" stroke="#000000" d="M80.5196,-361.6621C73.4876,-352.4564 64.5653,-340.7764 56.7117,-330.4953"/>
<polygon fill="#000000" stroke="#000000" points="59.2828,-328.0953 50.431,-322.2733 53.72,-332.3446 59.2828,-328.0953"/>
</g>
<!-- 769&#45;&gt;780 -->
<g id="edge34" class="edge">
<title>769&#45;&gt;780</title>
<path fill="none" stroke="#000000" d="M93,-359.9843C93,-311.2939 93,-176.7961 93,-118.0573"/>
<polygon fill="#000000" stroke="#000000" points="96.5001,-118.0088 93,-108.0089 89.5001,-118.0089 96.5001,-118.0088"/>
</g>
<!-- 768 -->
<g id="node24" class="node">
<title>768</title>
<ellipse fill="none" stroke="#000000" cx="203" cy="-306" rx="27" ry="18"/>
<text text-anchor="middle" x="203" y="-302.3" font-family="Times,serif" font-size="14.00" fill="#000000">768</text>
</g>
<!-- 769&#45;&gt;768 -->
<g id="edge35" class="edge">
<title>769&#45;&gt;768</title>
<path fill="none" stroke="#000000" d="M112.4126,-365.2936C129.742,-353.9507 155.3318,-337.201 174.8972,-324.3946"/>
<polygon fill="#000000" stroke="#000000" points="176.9613,-327.2267 183.4115,-318.8216 173.1276,-321.3698 176.9613,-327.2267"/>
</g>
<!-- 778&#45;&gt;303 -->
<g id="edge36" class="edge">
<title>778&#45;&gt;303</title>
<path fill="none" stroke="#000000" d="M148,-215.9555C148,-178.3938 148,-91.5541 148,-46.4103"/>
<polygon fill="#000000" stroke="#000000" points="151.5001,-46.145 148,-36.1451 144.5001,-46.1451 151.5001,-46.145"/>
</g>
<!-- 779 -->
<g id="node25" class="node">
<title>779</title>
<ellipse fill="none" stroke="#000000" cx="203" cy="-162" rx="27" ry="18"/>
<text text-anchor="middle" x="203" y="-158.3" font-family="Times,serif" font-size="14.00" fill="#000000">779</text>
</g>
<!-- 778&#45;&gt;779 -->
<g id="edge37" class="edge">
<title>778&#45;&gt;779</title>
<path fill="none" stroke="#000000" d="M160.4804,-217.6621C167.5124,-208.4564 176.4347,-196.7764 184.2883,-186.4953"/>
<polygon fill="#000000" stroke="#000000" points="187.28,-188.3446 190.569,-178.2733 181.7172,-184.0953 187.28,-188.3446"/>
</g>
<!-- 774 -->
<g id="node26" class="node">
<title>774</title>
<ellipse fill="none" stroke="#000000" cx="220" cy="-234" rx="27" ry="18"/>
<text text-anchor="middle" x="220" y="-230.3" font-family="Times,serif" font-size="14.00" fill="#000000">774</text>
</g>
<!-- 773&#45;&gt;774 -->
<g id="edge38" class="edge">
<title>773&#45;&gt;774</title>
<path fill="none" stroke="#000000" d="M217.1229,-362.2844C225.2535,-352.1468 234.6901,-338.2347 239,-324 245.3645,-302.9795 239.4068,-278.5691 232.5298,-260.4781"/>
<polygon fill="#000000" stroke="#000000" points="235.7291,-259.0552 228.6871,-251.1393 229.2557,-261.7189 235.7291,-259.0552"/>
</g>
<!-- 725 -->
<g id="node21" class="node">
<title>725</title>
<ellipse fill="none" stroke="#000000" cx="340" cy="-234" rx="27" ry="18"/>
<text text-anchor="middle" x="340" y="-230.3" font-family="Times,serif" font-size="14.00" fill="#000000">725</text>
</g>
<!-- 810&#45;&gt;725 -->
<g id="edge25" class="edge">
<title>810&#45;&gt;725</title>
<path fill="none" stroke="#000000" d="M328.4784,-289.6621C326.565,-281.1306 326.0395,-270.474 326.9019,-260.7753"/>
<polygon fill="#000000" stroke="#000000" points="330.3804,-261.1776 328.3824,-250.7729 323.4558,-260.1526 330.3804,-261.1776"/>
</g>
<!-- 810&#45;&gt;725 -->
<g id="edge26" class="edge">
<title>810&#45;&gt;725</title>
<path fill="none" stroke="#000000" d="M340,-287.8314C340,-280.131 340,-270.9743 340,-262.4166"/>
<polygon fill="#000000" stroke="#000000" points="343.5001,-262.4132 340,-252.4133 336.5001,-262.4133 343.5001,-262.4132"/>
</g>
<!-- 810&#45;&gt;725 -->
<g id="edge27" class="edge">
<title>810&#45;&gt;725</title>
<path fill="none" stroke="#000000" d="M351.5216,-289.6621C353.435,-281.1306 353.9605,-270.474 353.0981,-260.7753"/>
<polygon fill="#000000" stroke="#000000" points="356.5442,-260.1526 351.6176,-250.7729 349.6196,-261.1776 356.5442,-260.1526"/>
</g>
<!-- 793 -->
<g id="node23" class="node">
<title>793</title>
<ellipse fill="none" stroke="#000000" cx="461" cy="-234" rx="27" ry="18"/>
<text text-anchor="middle" x="461" y="-230.3" font-family="Times,serif" font-size="14.00" fill="#000000">793</text>
</g>
<!-- 792&#45;&gt;793 -->
<g id="edge30" class="edge">
<title>792&#45;&gt;793</title>
<path fill="none" stroke="#000000" d="M461,-287.8314C461,-280.131 461,-270.9743 461,-262.4166"/>
<polygon fill="#000000" stroke="#000000" points="464.5001,-262.4132 461,-252.4133 457.5001,-262.4133 464.5001,-262.4132"/>
</g>
<!-- 768&#45;&gt;303 -->
<g id="edge39" class="edge">
<title>768&#45;&gt;303</title>
<path fill="none" stroke="#000000" d="M222.0291,-292.8531C234.2758,-283.1609 249.1411,-268.7801 256,-252 262.0538,-237.1895 257.8508,-231.8926 256,-216 252.1967,-183.3408 252.3899,-174.0299 239,-144 223.1344,-108.4176 211.8958,-103.5216 189,-72 181.9029,-62.2291 173.9094,-51.617 166.8778,-42.4072"/>
<polygon fill="#000000" stroke="#000000" points="169.6063,-40.2137 160.7439,-34.4078 164.0514,-44.4731 169.6063,-40.2137"/>
</g>
<!-- 768&#45;&gt;778 -->
<g id="edge40" class="edge">
<title>768&#45;&gt;778</title>
<path fill="none" stroke="#000000" d="M190.5196,-289.6621C183.4876,-280.4564 174.5653,-268.7764 166.7117,-258.4953"/>
<polygon fill="#000000" stroke="#000000" points="169.2828,-256.0953 160.431,-250.2733 163.72,-260.3446 169.2828,-256.0953"/>
</g>
<!-- 779&#45;&gt;303 -->
<g id="edge41" class="edge">
<title>779&#45;&gt;303</title>
<path fill="none" stroke="#000000" d="M196.2559,-144.3428C186.8133,-119.6202 169.5649,-74.4608 158.4515,-45.3639"/>
<polygon fill="#000000" stroke="#000000" points="161.637,-43.8946 154.7992,-35.8017 155.0977,-46.3923 161.637,-43.8946"/>
</g>
<!-- 779&#45;&gt;780 -->
<g id="edge42" class="edge">
<title>779&#45;&gt;780</title>
<path fill="none" stroke="#000000" d="M183.5874,-149.2936C166.258,-137.9507 140.6682,-121.201 121.1028,-108.3946"/>
<polygon fill="#000000" stroke="#000000" points="122.8724,-105.3698 112.5885,-102.8216 119.0387,-111.2267 122.8724,-105.3698"/>
</g>
<!-- 774&#45;&gt;779 -->
<g id="edge43" class="edge">
<title>774&#45;&gt;779</title>
<path fill="none" stroke="#000000" d="M215.7978,-216.2022C213.9179,-208.2406 211.6575,-198.6671 209.5629,-189.7957"/>
<polygon fill="#000000" stroke="#000000" points="212.9172,-188.7706 207.2128,-179.8425 206.1045,-190.3792 212.9172,-188.7706"/>
</g>
<!-- 179 -->
<g id="node27" class="node">
<title>179</title>
<ellipse fill="none" stroke="#000000" cx="203" cy="-738" rx="27" ry="18"/>
<text text-anchor="middle" x="203" y="-734.3" font-family="Times,serif" font-size="14.00" fill="#000000">179</text>
</g>
<!-- 759 -->
<g id="node28" class="node">
<title>759</title>
<ellipse fill="none" stroke="#000000" cx="203" cy="-666" rx="27" ry="18"/>
<text text-anchor="middle" x="203" y="-662.3" font-family="Times,serif" font-size="14.00" fill="#000000">759</text>
</g>
<!-- 179&#45;&gt;759 -->
<g id="edge44" class="edge">
<title>179&#45;&gt;759</title>
<path fill="none" stroke="#000000" d="M203,-719.8314C203,-712.131 203,-702.9743 203,-694.4166"/>
<polygon fill="#000000" stroke="#000000" points="206.5001,-694.4132 203,-684.4133 199.5001,-694.4133 206.5001,-694.4132"/>
</g>
<!-- 759&#45;&gt;737 -->
<g id="edge45" class="edge">
<title>759&#45;&gt;737</title>
<path fill="none" stroke="#000000" d="M189.113,-650.3771C180.4747,-640.659 169.2107,-627.987 159.5503,-617.1191"/>
<polygon fill="#000000" stroke="#000000" points="162.1196,-614.7413 152.8599,-609.5924 156.8877,-619.3918 162.1196,-614.7413"/>
</g>
<!-- 759&#45;&gt;769 -->
<g id="edge47" class="edge">
<title>759&#45;&gt;769</title>
<path fill="none" stroke="#000000" d="M206.7539,-647.8611C214.356,-606.1142 227.3875,-501.4927 184,-432 171.124,-411.3769 147.2407,-397.6449 127.1721,-389.1908"/>
<polygon fill="#000000" stroke="#000000" points="128.2786,-385.865 117.6916,-385.4574 125.7138,-392.3782 128.2786,-385.865"/>
</g>
<!-- 759&#45;&gt;725 -->
<g id="edge46" class="edge">
<title>759&#45;&gt;725</title>
<path fill="none" stroke="#000000" d="M229.1231,-660.4506C283.9502,-647.1072 406,-607.7711 406,-522 406,-522 406,-522 406,-378 406,-332.5882 378.5394,-285.8468 359.0443,-258.3854"/>
<polygon fill="#000000" stroke="#000000" points="361.7672,-256.1795 353.0395,-250.173 356.1165,-260.3112 361.7672,-256.1795"/>
</g>
</g>
</svg>
