<?xml version="1.0" encoding="UTF-8" standalone="no"?>
<!DOCTYPE svg PUBLIC "-//W3C//DTD SVG 1.1//EN"
 "http://www.w3.org/Graphics/SVG/1.1/DTD/svg11.dtd">
<!-- Generated by graphviz version 2.40.1 (20161225.0304)
 -->
<!-- Title: G Pages: 1 -->
<svg width="288pt" height="234pt"
 viewBox="0.00 0.00 287.65 233.82" xmlns="http://www.w3.org/2000/svg" xmlns:xlink="http://www.w3.org/1999/xlink">
<g id="graph0" class="graph" transform="scale(1 1) rotate(0) translate(4 229.8243)">
<title>G</title>
<polygon fill="#ffffff" stroke="transparent" points="-4,4 -4,-229.8243 283.6468,-229.8243 283.6468,4 -4,4"/>
<!-- a -->
<g id="node1" class="node">
<title>a</title>
<polygon fill="#add8e6" stroke="#add8e6" points="170.7296,-198.2353 132.6134,-216.8463 94.4973,-198.2353 109.0563,-168.122 156.1705,-168.122 170.7296,-198.2353"/>
<polygon fill="none" stroke="#add8e6" points="176.07,-200.0729 132.6134,-221.2915 89.1569,-200.0729 106.5336,-164.1318 158.6932,-164.1318 176.07,-200.0729"/>
<polygon fill="none" stroke="#add8e6" points="181.4104,-201.9106 132.6134,-225.7367 83.8165,-201.9106 104.0109,-160.1415 161.216,-160.1415 181.4104,-201.9106"/>
<text text-anchor="middle" x="132.6134" y="-186.2122" font-family="Times,serif" font-size="14.00" fill="#000000">a</text>
</g>
<!-- b -->
<g id="node2" class="node">
<title>b</title>
<ellipse fill="none" stroke="#000000" cx="132.6134" cy="-100" rx="27" ry="18"/>
<text text-anchor="middle" x="132.6134" y="-96.3" font-family="Times,serif" font-size="14.00" fill="#000000">b</text>
</g>
<!-- a&#45;&gt;b -->
<g id="edge1" class="edge">
<title>a&#45;&gt;b</title>
<path fill="none" stroke="#000000" d="M132.6134,-159.9727C132.6134,-149.7685 132.6134,-138.3981 132.6134,-128.3246"/>
<polygon fill="#000000" stroke="#000000" points="136.1135,-128.0194 132.6134,-118.0194 129.1135,-128.0195 136.1135,-128.0194"/>
</g>
<!-- c -->
<g id="node3" class="node">
<title>c</title>
<polygon fill="none" stroke="#000000" points="145.3404,-41 22.6664,-41 -.1136,-5 122.5604,-5 145.3404,-41"/>
<text text-anchor="middle" x="72.6134" y="-19.3" font-family="Times,serif" font-size="14.00" fill="#000000">hello world</text>
</g>
<!-- b&#45;&gt;c -->
<g id="edge2" class="edge">
<title>b&#45;&gt;c</title>
<path fill="none" stroke="#000000" d="M119.889,-83.6703C112.083,-73.6526 101.9099,-60.5972 93.0013,-49.1644"/>
<polygon fill="#000000" stroke="#000000" points="95.6972,-46.9298 86.7898,-41.1931 90.1756,-51.2324 95.6972,-46.9298"/>
</g>
<!-- d -->
<g id="node4" class="node">
<title>d</title>
<polygon fill="none" stroke="#000000" points="193.6134,0 223.6134,-34.5 163.6134,-34.5 193.6134,0"/>
<text text-anchor="middle" x="193.6134" y="-19.3" font-family="Times,serif" font-size="14.00" fill="#000000">d</text>
</g>
<!-- b&#45;&gt;d -->
<g id="edge3" class="edge">
<title>b&#45;&gt;d</title>
<path fill="none" stroke="#000000" d="M145.2527,-84.0456C154.6661,-72.163 167.5843,-55.8564 177.7014,-43.0857"/>
<polygon fill="#000000" stroke="#000000" points="180.7142,-44.919 184.1804,-34.9072 175.2273,-40.5723 180.7142,-44.919"/>
</g>
<!-- e -->
<g id="node5" class="node">
<title>e</title>
<polygon fill="none" stroke="#000000" points="279.6803,-207.9122 199.5466,-207.9122 222.6659,-171.9122 256.561,-171.9122 279.6803,-207.9122"/>
<text text-anchor="middle" x="239.6134" y="-186.2122" font-family="Times,serif" font-size="14.00" fill="#000000">e</text>
</g>
</g>
</svg>
