<?xml version="1.0" encoding="UTF-8" standalone="no"?>
<!DOCTYPE svg PUBLIC "-//W3C//DTD SVG 1.1//EN"
 "http://www.w3.org/Graphics/SVG/1.1/DTD/svg11.dtd">
<!-- Generated by graphviz version 2.40.1 (20161225.0304)
 -->
<!-- Title: ER Pages: 1 -->
<svg width="216pt" height="193pt"
 viewBox="0.00 0.00 216.20 193.48" xmlns="http://www.w3.org/2000/svg" xmlns:xlink="http://www.w3.org/1999/xlink">
<g id="graph0" class="graph" transform="scale(1 1) rotate(0) translate(4 189.4815)">
<title>ER</title>
<polygon fill="transparent" stroke="transparent" points="-4,4 -4,-189.4815 212.2025,-189.4815 212.2025,4 -4,4"/>
<!-- A -->
<g id="node1" class="node">
<title>A</title>
<ellipse fill="none" stroke="#000000" cx="105.4358" cy="-86.345" rx="27" ry="18"/>
<text text-anchor="middle" x="105.4358" y="-82.645" font-family="Times,serif" font-size="14.00" fill="#000000">A</text>
</g>
<!-- 1 -->
<g id="node2" class="node">
<title>1</title>
<ellipse fill="none" stroke="#000000" cx="157.0414" cy="-23.5838" rx="27" ry="18"/>
<text text-anchor="middle" x="157.0414" y="-19.8838" font-family="Times,serif" font-size="14.00" fill="#000000">1</text>
</g>
<!-- A&#45;&#45;1 -->
<g id="edge1" class="edge">
<title>A&#45;&#45;1</title>
<path fill="none" stroke="#000000" d="M118.458,-70.5077C126.2214,-61.0662 136.0497,-49.1133 143.8438,-39.6343"/>
</g>
<!-- 2 -->
<g id="node3" class="node">
<title>2</title>
<ellipse fill="none" stroke="#000000" cx="61.5267" cy="-18" rx="27" ry="18"/>
<text text-anchor="middle" x="61.5267" y="-14.3" font-family="Times,serif" font-size="14.00" fill="#000000">2</text>
</g>
<!-- A&#45;&#45;2 -->
<g id="edge2" class="edge">
<title>A&#45;&#45;2</title>
<path fill="none" stroke="#000000" d="M94.5818,-69.4508C87.7757,-58.8569 79.0381,-45.2567 72.2558,-34.6999"/>
</g>
<!-- 3 -->
<g id="node4" class="node">
<title>3</title>
<ellipse fill="none" stroke="#000000" cx="27" cy="-107.4418" rx="27" ry="18"/>
<text text-anchor="middle" x="27" y="-103.7418" font-family="Times,serif" font-size="14.00" fill="#000000">3</text>
</g>
<!-- A&#45;&#45;3 -->
<g id="edge3" class="edge">
<title>A&#45;&#45;3</title>
<path fill="none" stroke="#000000" d="M80.1864,-93.1363C71.2297,-95.5454 61.1548,-98.2552 52.202,-100.6633"/>
</g>
<!-- 4 -->
<g id="node5" class="node">
<title>4</title>
<ellipse fill="none" stroke="#000000" cx="181.2025" cy="-115.7251" rx="27" ry="18"/>
<text text-anchor="middle" x="181.2025" y="-112.0251" font-family="Times,serif" font-size="14.00" fill="#000000">4</text>
</g>
<!-- A&#45;&#45;4 -->
<g id="edge4" class="edge">
<title>A&#45;&#45;4</title>
<path fill="none" stroke="#000000" d="M128.9935,-95.48C138.116,-99.0174 148.5382,-103.0589 157.6593,-106.5957"/>
</g>
<!-- 5 -->
<g id="node6" class="node">
<title>5</title>
<ellipse fill="none" stroke="#000000" cx="101.3237" cy="-167.4815" rx="27" ry="18"/>
<text text-anchor="middle" x="101.3237" y="-163.7815" font-family="Times,serif" font-size="14.00" fill="#000000">5</text>
</g>
<!-- A&#45;&#45;5 -->
<g id="edge5" class="edge">
<title>A&#45;&#45;5</title>
<path fill="none" stroke="#000000" d="M104.5232,-104.3519C103.8465,-117.7042 102.9274,-135.8376 102.248,-149.2445"/>
</g>
</g>
</svg>
