<?xml version="1.0" encoding="UTF-8" standalone="no"?>
<!DOCTYPE svg PUBLIC "-//W3C//DTD SVG 1.1//EN"
 "http://www.w3.org/Graphics/SVG/1.1/DTD/svg11.dtd">
<!-- Generated by graphviz version 2.40.1 (20161225.0304)
 -->
<!-- Title: G1 Pages: 1 -->
<svg width="234pt" height="241pt"
 viewBox="0.00 0.00 234.00 241.00" xmlns="http://www.w3.org/2000/svg" xmlns:xlink="http://www.w3.org/1999/xlink">
<g id="graph0" class="graph" transform="scale(1 1) rotate(0) translate(4 237)">
<title>G1</title>
<polygon fill="#ffffff" stroke="transparent" points="-4,4 -4,-237 230,-237 230,4 -4,4"/>
<text text-anchor="middle" x="29.5" y="-7.8" font-family="Times,serif" font-size="14.00" fill="#000000">我爱你</text>
<!-- C -->
<g id="node1" class="node">
<title>C</title>
<ellipse fill="none" stroke="#000000" cx="66" cy="-215" rx="27" ry="18"/>
<text text-anchor="middle" x="66" y="-211.3" font-family="Times,serif" font-size="14.00" fill="#000000">C</text>
</g>
<!-- D -->
<g id="node2" class="node">
<title>D</title>
<ellipse fill="none" stroke="#000000" cx="66" cy="-128" rx="27" ry="18"/>
<text text-anchor="middle" x="66" y="-124.3" font-family="Times,serif" font-size="14.00" fill="#000000">D</text>
</g>
<!-- C&#45;&#45;D -->
<g id="edge1" class="edge">
<title>C&#45;&#45;D</title>
<path fill="none" stroke="#000000" d="M66,-196.9735C66,-182.0422 66,-160.9283 66,-146.0034"/>
<text text-anchor="middle" x="72.5" y="-167.8" font-family="Times,serif" font-size="14.00" fill="#000000">s1</text>
<polyline fill="none" stroke="#000000" points="79,-164 66,-164 66,-171.9084 "/>
</g>
<!-- E -->
<g id="node3" class="node">
<title>E</title>
<ellipse fill="none" stroke="#000000" cx="27" cy="-41" rx="27" ry="18"/>
<text text-anchor="middle" x="27" y="-37.3" font-family="Times,serif" font-size="14.00" fill="#000000">E</text>
</g>
<!-- C&#45;&#45;E -->
<g id="edge2" class="edge">
<title>C&#45;&#45;E</title>
<path fill="none" stroke="#000000" d="M50.9616,-199.8449C39.1601,-186.8093 23.6522,-166.8566 17,-146 7.5963,-116.5167 14.9665,-80.2009 21.062,-58.9226"/>
<text text-anchor="middle" x="23.5" y="-124.3" font-family="Times,serif" font-size="14.00" fill="#000000">s2</text>
<polyline fill="none" stroke="#000000" points="30,-120.5 17,-120.5 13.4509,-129.5717 "/>
</g>
<!-- F -->
<g id="node4" class="node">
<title>F</title>
<ellipse fill="none" stroke="#000000" cx="109" cy="-41" rx="27" ry="18"/>
<text text-anchor="middle" x="109" y="-37.3" font-family="Times,serif" font-size="14.00" fill="#000000">F</text>
</g>
<!-- C&#45;&#45;F -->
<g id="edge3" class="edge">
<title>C&#45;&#45;F</title>
<path fill="none" stroke="#000000" d="M76.873,-198.4585C85.1998,-184.9305 96.2106,-164.9996 102,-146 109.0385,-122.9009 106.4283,-116.0965 108,-92 108.7032,-81.2187 108.9633,-69.1307 109.0429,-59.4299"/>
<text text-anchor="middle" x="113.5" y="-124.3" font-family="Times,serif" font-size="14.00" fill="#000000">s3</text>
<polyline fill="none" stroke="#000000" points="120,-120.5 107,-120.5 106.3006,-127.3384 "/>
</g>
<!-- D&#45;&#45;E -->
<g id="edge4" class="edge">
<title>D&#45;&#45;E</title>
<path fill="none" stroke="#000000" d="M58.1078,-110.3943C51.2969,-95.2008 41.5157,-73.3812 34.7474,-58.2827"/>
<text text-anchor="middle" x="55.5" y="-80.8" font-family="Times,serif" font-size="14.00" fill="#000000">s4</text>
<polyline fill="none" stroke="#000000" points="62,-77 49,-77 48.1576,-88.1976 "/>
</g>
<!-- D&#45;&#45;F -->
<g id="edge5" class="edge">
<title>D&#45;&#45;F</title>
<path fill="none" stroke="#000000" d="M74.4954,-110.8116C82.0339,-95.5593 92.9891,-73.3942 100.5222,-58.1527"/>
<text text-anchor="middle" x="97.5" y="-80.8" font-family="Times,serif" font-size="14.00" fill="#000000">s5</text>
<polyline fill="none" stroke="#000000" points="104,-77 91,-77 89.4586,-80.5372 "/>
</g>
<!-- C1 -->
<g id="node5" class="node">
<title>C1</title>
<ellipse fill="none" stroke="#000000" cx="187" cy="-215" rx="27" ry="18"/>
<text text-anchor="middle" x="187" y="-211.3" font-family="Times,serif" font-size="14.00" fill="#000000">C1</text>
</g>
<!-- D1 -->
<g id="node6" class="node">
<title>D1</title>
<ellipse fill="none" stroke="#000000" cx="187" cy="-128" rx="27" ry="18"/>
<text text-anchor="middle" x="187" y="-124.3" font-family="Times,serif" font-size="14.00" fill="#000000">D1</text>
</g>
<!-- C1&#45;&#45;D1 -->
<g id="edge6" class="edge">
<title>C1&#45;&#45;D1</title>
<path fill="none" stroke="#000000" d="M187,-196.9735C187,-182.0422 187,-160.9283 187,-146.0034"/>
<text text-anchor="middle" x="206.5" y="-167.8" font-family="Times,serif" font-size="14.00" fill="#ff0000">c1 &#45; d1</text>
<text text-anchor="middle" x="180" y="-149.8034" font-family="Times,serif" font-size="14.00" fill="#0000ff">d1</text>
<text text-anchor="middle" x="180.5" y="-185.7735" font-family="Times,serif" font-size="14.00" fill="#0000ff">c1</text>
</g>
</g>
</svg>
