<?xml version="1.0" encoding="UTF-8" standalone="no"?>
<!DOCTYPE svg PUBLIC "-//W3C//DTD SVG 1.1//EN"
 "http://www.w3.org/Graphics/SVG/1.1/DTD/svg11.dtd">
<!-- Generated by graphviz version 2.40.1 (20161225.0304)
 -->
<!-- Title: G Pages: 1 -->
<svg width="632pt" height="152pt"
 viewBox="0.00 0.00 632.00 152.00" xmlns="http://www.w3.org/2000/svg" xmlns:xlink="http://www.w3.org/1999/xlink">
<g id="graph0" class="graph" transform="scale(1 1) rotate(0) translate(4 148)">
<title>G</title>
<polygon fill="#ffffff" stroke="transparent" points="-4,4 -4,-148 628,-148 628,4 -4,4"/>
<!-- 1995 -->
<g id="node1" class="node">
<title>1995</title>
<text text-anchor="middle" x="27" y="-14.3" font-family="Times,serif" font-size="14.00" fill="#000000">1995</text>
</g>
<!-- 1996 -->
<g id="node2" class="node">
<title>1996</title>
<text text-anchor="middle" x="118" y="-14.3" font-family="Times,serif" font-size="14.00" fill="#000000">1996</text>
</g>
<!-- 1995&#45;&gt;1996 -->
<g id="edge1" class="edge">
<title>1995&#45;&gt;1996</title>
<path fill="none" stroke="#000000" d="M54.303,-18C62.5813,-18 71.8217,-18 80.6405,-18"/>
<polygon fill="#000000" stroke="#000000" points="80.7163,-21.5001 90.7163,-18 80.7162,-14.5001 80.7163,-21.5001"/>
</g>
<!-- 1997 -->
<g id="node3" class="node">
<title>1997</title>
<text text-anchor="middle" x="209" y="-14.3" font-family="Times,serif" font-size="14.00" fill="#000000">1997</text>
</g>
<!-- 1996&#45;&gt;1997 -->
<g id="edge2" class="edge">
<title>1996&#45;&gt;1997</title>
<path fill="none" stroke="#000000" d="M145.303,-18C153.5813,-18 162.8217,-18 171.6405,-18"/>
<polygon fill="#000000" stroke="#000000" points="171.7163,-21.5001 181.7163,-18 171.7162,-14.5001 171.7163,-21.5001"/>
</g>
<!-- 1998 -->
<g id="node4" class="node">
<title>1998</title>
<text text-anchor="middle" x="307.5" y="-14.3" font-family="Times,serif" font-size="14.00" fill="#000000">1998</text>
</g>
<!-- 1997&#45;&gt;1998 -->
<g id="edge3" class="edge">
<title>1997&#45;&gt;1998</title>
<path fill="none" stroke="#000000" d="M236.1763,-18C246.727,-18 258.9818,-18 270.3257,-18"/>
<polygon fill="#000000" stroke="#000000" points="270.4124,-21.5001 280.4124,-18 270.4124,-14.5001 270.4124,-21.5001"/>
</g>
<!-- 1999 -->
<g id="node5" class="node">
<title>1999</title>
<text text-anchor="middle" x="411.5" y="-14.3" font-family="Times,serif" font-size="14.00" fill="#000000">1999</text>
</g>
<!-- 1998&#45;&gt;1999 -->
<g id="edge4" class="edge">
<title>1998&#45;&gt;1999</title>
<path fill="none" stroke="#000000" d="M334.5533,-18C346.6157,-18 361.0252,-18 374.0959,-18"/>
<polygon fill="#000000" stroke="#000000" points="374.2209,-21.5001 384.2209,-18 374.2208,-14.5001 374.2209,-21.5001"/>
</g>
<!-- 2000 -->
<g id="node6" class="node">
<title>2000</title>
<text text-anchor="middle" x="507" y="-14.3" font-family="Times,serif" font-size="14.00" fill="#000000">2000</text>
</g>
<!-- 1999&#45;&gt;2000 -->
<g id="edge5" class="edge">
<title>1999&#45;&gt;2000</title>
<path fill="none" stroke="#000000" d="M438.611,-18C448.2889,-18 459.3674,-18 469.7492,-18"/>
<polygon fill="#000000" stroke="#000000" points="469.8212,-21.5001 479.8212,-18 469.8212,-14.5001 469.8212,-21.5001"/>
</g>
<!-- 2001 -->
<g id="node7" class="node">
<title>2001</title>
<text text-anchor="middle" x="597" y="-14.3" font-family="Times,serif" font-size="14.00" fill="#000000">2001</text>
</g>
<!-- 2000&#45;&gt;2001 -->
<g id="edge6" class="edge">
<title>2000&#45;&gt;2001</title>
<path fill="none" stroke="#000000" d="M534.003,-18C542.0277,-18 550.9665,-18 559.5309,-18"/>
<polygon fill="#000000" stroke="#000000" points="559.7051,-21.5001 569.705,-18 559.705,-14.5001 559.7051,-21.5001"/>
</g>
<!-- WAR3 -->
<g id="node8" class="node">
<title>WAR3</title>
<polygon fill="#d3d3d3" stroke="#000000" points="146,-109 90,-109 90,-73 146,-73 146,-109"/>
<text text-anchor="middle" x="118" y="-87.3" font-family="Times,serif" font-size="14.00" fill="#000000">WAR3</text>
</g>
<!-- Xhero -->
<g id="node9" class="node">
<title>Xhero</title>
<polygon fill="#d3d3d3" stroke="#000000" points="334.5,-144 280.5,-144 280.5,-108 334.5,-108 334.5,-144"/>
<text text-anchor="middle" x="307.5" y="-122.3" font-family="Times,serif" font-size="14.00" fill="#000000">Xhero</text>
</g>
<!-- WAR3&#45;&gt;Xhero -->
<g id="edge7" class="edge">
<title>WAR3&#45;&gt;Xhero</title>
<path fill="none" stroke="#000000" d="M146.3701,-96.2399C179.3549,-102.332 233.9087,-112.4079 270.2737,-119.1244"/>
<polygon fill="#000000" stroke="#000000" points="270.0034,-122.6336 280.4728,-121.0082 271.2748,-115.75 270.0034,-122.6336"/>
</g>
<!-- Battleship -->
<g id="node10" class="node">
<title>Battleship</title>
<polygon fill="#d3d3d3" stroke="#000000" points="343,-90 272,-90 272,-54 343,-54 343,-90"/>
<text text-anchor="middle" x="307.5" y="-68.3" font-family="Times,serif" font-size="14.00" fill="#000000">Battleship</text>
</g>
<!-- WAR3&#45;&gt;Battleship -->
<g id="edge8" class="edge">
<title>WAR3&#45;&gt;Battleship</title>
<path fill="none" stroke="#000000" d="M146.3701,-88.1555C176.8176,-85.1027 225.6434,-80.2073 261.577,-76.6044"/>
<polygon fill="#000000" stroke="#000000" points="262.2104,-80.0586 271.8113,-75.5783 261.512,-73.0935 262.2104,-80.0586"/>
</g>
<!-- Footman -->
<g id="node11" class="node">
<title>Footman</title>
<polygon fill="#d3d3d3" stroke="#000000" points="444,-144 379,-144 379,-108 444,-108 444,-144"/>
<text text-anchor="middle" x="411.5" y="-122.3" font-family="Times,serif" font-size="14.00" fill="#000000">Footman</text>
</g>
<!-- Xhero&#45;&gt;Footman -->
<g id="edge9" class="edge">
<title>Xhero&#45;&gt;Footman</title>
<path fill="none" stroke="#000000" d="M334.5533,-126C344.875,-126 356.9153,-126 368.3648,-126"/>
<polygon fill="#000000" stroke="#000000" points="368.6473,-129.5001 378.6473,-126 368.6473,-122.5001 368.6473,-129.5001"/>
</g>
<!-- DOTA -->
<g id="node12" class="node">
<title>DOTA</title>
<polygon fill="#d3d3d3" stroke="#000000" points="624,-144 570,-144 570,-108 624,-108 624,-144"/>
<text text-anchor="middle" x="597" y="-122.3" font-family="Times,serif" font-size="14.00" fill="#000000">DOTA</text>
</g>
<!-- Footman&#45;&gt;DOTA -->
<g id="edge10" class="edge">
<title>Footman&#45;&gt;DOTA</title>
<path fill="none" stroke="#000000" d="M444.2367,-126C476.4283,-126 525.5231,-126 559.3216,-126"/>
<polygon fill="#000000" stroke="#000000" points="559.7169,-129.5001 569.7168,-126 559.7168,-122.5001 559.7169,-129.5001"/>
</g>
</g>
</svg>
