<?xml version="1.0" encoding="UTF-8" standalone="no"?>
<!DOCTYPE svg PUBLIC "-//W3C//DTD SVG 1.1//EN"
 "http://www.w3.org/Graphics/SVG/1.1/DTD/svg11.dtd">
<!-- Generated by graphviz version 2.40.1 (20161225.0304)
 -->
<!-- Title: G Pages: 1 -->
<svg width="620pt" height="139pt"
 viewBox="0.00 0.00 620.00 138.90" xmlns="http://www.w3.org/2000/svg" xmlns:xlink="http://www.w3.org/1999/xlink">
<g id="graph0" class="graph" transform="scale(1 1) rotate(0) translate(4 134.9017)">
<title>G</title>
<polygon fill="#ffffff" stroke="transparent" points="-4,4 -4,-134.9017 616,-134.9017 616,4 -4,4"/>
<!-- c -->
<g id="node1" class="node">
<title>c</title>
<polygon fill="none" stroke="#000000" points="54,-123 0,-123 0,-87 54,-87 54,-123"/>
<text text-anchor="middle" x="27" y="-101.3" font-family="Times,serif" font-size="14.00" fill="#000000">c</text>
</g>
<!-- d -->
<g id="node2" class="node">
<title>d</title>
<polygon fill="none" stroke="#000000" points="54,-36 0,-36 0,0 54,0 54,-36"/>
<text text-anchor="middle" x="27" y="-14.3" font-family="Times,serif" font-size="14.00" fill="#000000">d</text>
</g>
<!-- c&#45;&gt;d -->
<g id="edge1" class="edge">
<title>c:n&#45;&gt;d</title>
<path fill="none" stroke="#000000" d="M27,-123C27,-135 45.5147,-131.4853 54,-123 64.7868,-112.2132 51.0889,-72.9903 39.5882,-45.6661"/>
<polygon fill="#000000" stroke="#000000" points="42.6817,-44.0016 35.4999,-36.2123 36.2567,-46.7801 42.6817,-44.0016"/>
<text text-anchor="middle" x="52.5" y="-57.8" font-family="Times,serif" font-size="14.00" fill="#000000">n</text>
</g>
<!-- c1 -->
<g id="node3" class="node">
<title>c1</title>
<polygon fill="none" stroke="#000000" points="126,-123 72,-123 72,-87 126,-87 126,-123"/>
<text text-anchor="middle" x="99" y="-101.3" font-family="Times,serif" font-size="14.00" fill="#000000">c1</text>
</g>
<!-- d1 -->
<g id="node4" class="node">
<title>d1</title>
<polygon fill="none" stroke="#000000" points="153,-36 99,-36 99,0 153,0 153,-36"/>
<text text-anchor="middle" x="126" y="-14.3" font-family="Times,serif" font-size="14.00" fill="#000000">d1</text>
</g>
<!-- c1&#45;&gt;d1 -->
<g id="edge2" class="edge">
<title>c1:ne&#45;&gt;d1</title>
<path fill="none" stroke="#000000" d="M126,-123C137.2727,-134.2727 133.1417,-81.1278 129.3935,-46.3269"/>
<polygon fill="#000000" stroke="#000000" points="132.8514,-45.7554 128.26,-36.2072 125.8949,-46.5347 132.8514,-45.7554"/>
<text text-anchor="middle" x="138.5" y="-57.8" font-family="Times,serif" font-size="14.00" fill="#000000">ne</text>
</g>
<!-- c2 -->
<g id="node5" class="node">
<title>c2</title>
<polygon fill="none" stroke="#000000" points="198,-123 144,-123 144,-87 198,-87 198,-123"/>
<text text-anchor="middle" x="171" y="-101.3" font-family="Times,serif" font-size="14.00" fill="#000000">c2</text>
</g>
<!-- d2 -->
<g id="node6" class="node">
<title>d2</title>
<polygon fill="none" stroke="#000000" points="225,-36 171,-36 171,0 225,0 225,-36"/>
<text text-anchor="middle" x="198" y="-14.3" font-family="Times,serif" font-size="14.00" fill="#000000">d2</text>
</g>
<!-- c2&#45;&gt;d2 -->
<g id="edge3" class="edge">
<title>c2:e&#45;&gt;d2</title>
<path fill="none" stroke="#000000" d="M198,-105C210.014,-105 207.0967,-71.4045 203.1658,-45.9669"/>
<polygon fill="#000000" stroke="#000000" points="206.6065,-45.3203 201.5197,-36.0265 199.7005,-46.4639 206.6065,-45.3203"/>
<text text-anchor="middle" x="209.5" y="-57.8" font-family="Times,serif" font-size="14.00" fill="#000000">e</text>
</g>
<!-- c3 -->
<g id="node7" class="node">
<title>c3</title>
<polygon fill="none" stroke="#000000" points="270,-123 216,-123 216,-87 270,-87 270,-123"/>
<text text-anchor="middle" x="243" y="-101.3" font-family="Times,serif" font-size="14.00" fill="#000000">c3</text>
</g>
<!-- d3 -->
<g id="node8" class="node">
<title>d3</title>
<polygon fill="none" stroke="#000000" points="297,-36 243,-36 243,0 297,0 297,-36"/>
<text text-anchor="middle" x="270" y="-14.3" font-family="Times,serif" font-size="14.00" fill="#000000">d3</text>
</g>
<!-- c3&#45;&gt;d3 -->
<g id="edge4" class="edge">
<title>c3:se&#45;&gt;d3</title>
<path fill="none" stroke="#000000" d="M270,-87C280.4287,-76.5713 280.8265,-60.2144 278.4296,-46.0435"/>
<polygon fill="#000000" stroke="#000000" points="281.8399,-45.2545 276.2939,-36.2272 275,-46.7427 281.8399,-45.2545"/>
<text text-anchor="middle" x="286" y="-57.8" font-family="Times,serif" font-size="14.00" fill="#000000">se</text>
</g>
<!-- c4 -->
<g id="node9" class="node">
<title>c4</title>
<polygon fill="none" stroke="#000000" points="369,-123 315,-123 315,-87 369,-87 369,-123"/>
<text text-anchor="middle" x="342" y="-101.3" font-family="Times,serif" font-size="14.00" fill="#000000">c4</text>
</g>
<!-- d4 -->
<g id="node10" class="node">
<title>d4</title>
<polygon fill="none" stroke="#000000" points="369,-36 315,-36 315,0 369,0 369,-36"/>
<text text-anchor="middle" x="342" y="-14.3" font-family="Times,serif" font-size="14.00" fill="#000000">d4</text>
</g>
<!-- c4&#45;&gt;d4 -->
<g id="edge5" class="edge">
<title>c4:s&#45;&gt;d4</title>
<path fill="none" stroke="#000000" d="M342,-87C342,-73.6582 342,-58.8653 342,-46.4092"/>
<polygon fill="#000000" stroke="#000000" points="345.5001,-46.1596 342,-36.1597 338.5001,-46.1597 345.5001,-46.1596"/>
<text text-anchor="middle" x="345" y="-57.8" font-family="Times,serif" font-size="14.00" fill="#000000">s</text>
</g>
<!-- c5 -->
<g id="node11" class="node">
<title>c5</title>
<polygon fill="none" stroke="#000000" points="468,-123 414,-123 414,-87 468,-87 468,-123"/>
<text text-anchor="middle" x="441" y="-101.3" font-family="Times,serif" font-size="14.00" fill="#000000">c5</text>
</g>
<!-- d5 -->
<g id="node12" class="node">
<title>d5</title>
<polygon fill="none" stroke="#000000" points="441,-36 387,-36 387,0 441,0 441,-36"/>
<text text-anchor="middle" x="414" y="-14.3" font-family="Times,serif" font-size="14.00" fill="#000000">d5</text>
</g>
<!-- c5&#45;&gt;d5 -->
<g id="edge6" class="edge">
<title>c5:sw&#45;&gt;d5</title>
<path fill="none" stroke="#000000" d="M414,-87C403.5713,-76.5713 403.1735,-60.2144 405.5704,-46.0435"/>
<polygon fill="#000000" stroke="#000000" points="409,-46.7427 407.7061,-36.2272 402.1601,-45.2545 409,-46.7427"/>
<text text-anchor="middle" x="412" y="-57.8" font-family="Times,serif" font-size="14.00" fill="#000000">sw</text>
</g>
<!-- c6 -->
<g id="node13" class="node">
<title>c6</title>
<polygon fill="none" stroke="#000000" points="540,-123 486,-123 486,-87 540,-87 540,-123"/>
<text text-anchor="middle" x="513" y="-101.3" font-family="Times,serif" font-size="14.00" fill="#000000">c6</text>
</g>
<!-- d6 -->
<g id="node14" class="node">
<title>d6</title>
<polygon fill="none" stroke="#000000" points="513,-36 459,-36 459,0 513,0 513,-36"/>
<text text-anchor="middle" x="486" y="-14.3" font-family="Times,serif" font-size="14.00" fill="#000000">d6</text>
</g>
<!-- c6&#45;&gt;d6 -->
<g id="edge7" class="edge">
<title>c6:w&#45;&gt;d6</title>
<path fill="none" stroke="#000000" d="M486,-105C473.986,-105 476.9033,-71.4045 480.8342,-45.9669"/>
<polygon fill="#000000" stroke="#000000" points="484.2995,-46.4639 482.4803,-36.0265 477.3935,-45.3203 484.2995,-46.4639"/>
<text text-anchor="middle" x="484" y="-57.8" font-family="Times,serif" font-size="14.00" fill="#000000">w</text>
</g>
<!-- c7 -->
<g id="node15" class="node">
<title>c7</title>
<polygon fill="none" stroke="#000000" points="612,-123 558,-123 558,-87 612,-87 612,-123"/>
<text text-anchor="middle" x="585" y="-101.3" font-family="Times,serif" font-size="14.00" fill="#000000">c7</text>
</g>
<!-- d7 -->
<g id="node16" class="node">
<title>d7</title>
<polygon fill="none" stroke="#000000" points="585,-36 531,-36 531,0 585,0 585,-36"/>
<text text-anchor="middle" x="558" y="-14.3" font-family="Times,serif" font-size="14.00" fill="#000000">d7</text>
</g>
<!-- c7&#45;&gt;d7 -->
<g id="edge8" class="edge">
<title>c7:nw&#45;&gt;d7</title>
<path fill="none" stroke="#000000" d="M558,-123C546.7273,-134.2727 550.8583,-81.1278 554.6065,-46.3269"/>
<polygon fill="#000000" stroke="#000000" points="558.1051,-46.5347 555.74,-36.2072 551.1486,-45.7554 558.1051,-46.5347"/>
<text text-anchor="middle" x="561.5" y="-57.8" font-family="Times,serif" font-size="14.00" fill="#000000">nw</text>
</g>
</g>
</svg>
